G04 Layer_Color=65535*
%FSLAX44Y44*%
%MOMM*%
G71*
G01*
G75*
%ADD33C,0.2540*%
%ADD34C,0.6000*%
%ADD35C,0.2500*%
%ADD36C,0.1500*%
%ADD37C,0.2000*%
G36*
X208808Y94099D02*
X207629D01*
Y101602D01*
X207615Y101588D01*
X207546Y101532D01*
X207462Y101449D01*
X207324Y101352D01*
X207171Y101227D01*
X206977Y101088D01*
X206755Y100936D01*
X206506Y100783D01*
X206492D01*
X206478Y100770D01*
X206395Y100714D01*
X206256Y100645D01*
X206089Y100561D01*
X205895Y100464D01*
X205687Y100367D01*
X205479Y100270D01*
X205271Y100187D01*
Y101324D01*
X205285D01*
X205313Y101352D01*
X205368Y101366D01*
X205438Y101407D01*
X205521Y101449D01*
X205618Y101504D01*
X205854Y101643D01*
X206131Y101796D01*
X206408Y101990D01*
X206700Y102212D01*
X206991Y102448D01*
X207005Y102461D01*
X207019Y102475D01*
X207060Y102517D01*
X207116Y102558D01*
X207241Y102697D01*
X207407Y102864D01*
X207573Y103058D01*
X207754Y103280D01*
X207906Y103502D01*
X208045Y103737D01*
X208808D01*
Y94099D01*
D02*
G37*
G36*
X28563Y83583D02*
X28688D01*
X28979Y83569D01*
X29284Y83528D01*
X29617Y83486D01*
X29922Y83417D01*
X30074Y83375D01*
X30199Y83333D01*
X30213D01*
X30227Y83320D01*
X30310Y83278D01*
X30435Y83223D01*
X30587Y83125D01*
X30754Y83001D01*
X30934Y82834D01*
X31101Y82640D01*
X31267Y82418D01*
Y82404D01*
X31281Y82390D01*
X31336Y82307D01*
X31392Y82169D01*
X31475Y81988D01*
X31544Y81780D01*
X31614Y81531D01*
X31655Y81267D01*
X31669Y80976D01*
Y80962D01*
Y80934D01*
Y80879D01*
X31655Y80809D01*
Y80712D01*
X31641Y80615D01*
X31586Y80379D01*
X31503Y80102D01*
X31392Y79811D01*
X31225Y79520D01*
X31114Y79381D01*
X31003Y79242D01*
X30990Y79228D01*
X30976Y79215D01*
X30934Y79173D01*
X30879Y79131D01*
X30809Y79076D01*
X30726Y79020D01*
X30615Y78951D01*
X30504Y78868D01*
X30366Y78798D01*
X30213Y78729D01*
X30047Y78646D01*
X29866Y78577D01*
X29658Y78521D01*
X29450Y78452D01*
X29214Y78410D01*
X28965Y78369D01*
X28993Y78355D01*
X29048Y78327D01*
X29131Y78271D01*
X29242Y78216D01*
X29492Y78063D01*
X29617Y77966D01*
X29728Y77883D01*
X29755Y77855D01*
X29825Y77786D01*
X29936Y77675D01*
X30074Y77536D01*
X30227Y77342D01*
X30407Y77134D01*
X30587Y76885D01*
X30782Y76607D01*
X32432Y74000D01*
X30851D01*
X29589Y75997D01*
Y76011D01*
X29561Y76039D01*
X29534Y76080D01*
X29492Y76136D01*
X29395Y76288D01*
X29270Y76482D01*
X29117Y76691D01*
X28965Y76912D01*
X28812Y77120D01*
X28674Y77315D01*
X28660Y77328D01*
X28618Y77384D01*
X28549Y77467D01*
X28452Y77564D01*
X28244Y77772D01*
X28133Y77869D01*
X28022Y77952D01*
X28008Y77966D01*
X27980Y77980D01*
X27925Y78008D01*
X27841Y78050D01*
X27758Y78091D01*
X27661Y78133D01*
X27439Y78202D01*
X27425D01*
X27398Y78216D01*
X27342D01*
X27273Y78230D01*
X27176Y78244D01*
X27065D01*
X26912Y78258D01*
X25276D01*
Y74000D01*
X24000D01*
Y83597D01*
X28452D01*
X28563Y83583D01*
D02*
G37*
G36*
X189433Y103682D02*
X189711Y103668D01*
X189988Y103640D01*
X190266Y103599D01*
X190501Y103557D01*
X190515D01*
X190543Y103543D01*
X190585D01*
X190640Y103515D01*
X190793Y103474D01*
X190987Y103405D01*
X191209Y103307D01*
X191444Y103183D01*
X191680Y103044D01*
X191902Y102864D01*
X191916Y102850D01*
X191930Y102836D01*
X191971Y102794D01*
X192027Y102753D01*
X192166Y102614D01*
X192332Y102420D01*
X192512Y102184D01*
X192706Y101907D01*
X192887Y101588D01*
X193039Y101227D01*
Y101213D01*
X193053Y101186D01*
X193081Y101130D01*
X193095Y101047D01*
X193136Y100950D01*
X193164Y100839D01*
X193192Y100714D01*
X193233Y100561D01*
X193275Y100409D01*
X193303Y100229D01*
X193372Y99840D01*
X193414Y99410D01*
X193428Y98939D01*
Y98925D01*
Y98897D01*
Y98828D01*
Y98759D01*
X193414Y98661D01*
Y98551D01*
X193400Y98287D01*
X193358Y97982D01*
X193317Y97663D01*
X193247Y97330D01*
X193164Y96997D01*
Y96983D01*
X193150Y96956D01*
X193136Y96914D01*
X193123Y96859D01*
X193067Y96706D01*
X192984Y96512D01*
X192901Y96290D01*
X192790Y96068D01*
X192651Y95832D01*
X192512Y95610D01*
X192498Y95583D01*
X192443Y95513D01*
X192360Y95416D01*
X192249Y95292D01*
X192124Y95153D01*
X191971Y95014D01*
X191819Y94861D01*
X191639Y94737D01*
X191611Y94723D01*
X191555Y94681D01*
X191458Y94626D01*
X191320Y94556D01*
X191153Y94473D01*
X190959Y94404D01*
X190737Y94321D01*
X190487Y94251D01*
X190460D01*
X190418Y94237D01*
X190377Y94224D01*
X190238Y94210D01*
X190044Y94182D01*
X189822Y94154D01*
X189558Y94127D01*
X189267Y94113D01*
X188948Y94099D01*
X185495D01*
Y103696D01*
X189184D01*
X189433Y103682D01*
D02*
G37*
G36*
X199114D02*
X199391Y103668D01*
X199668Y103640D01*
X199946Y103599D01*
X200182Y103557D01*
X200195D01*
X200223Y103543D01*
X200265D01*
X200320Y103515D01*
X200473Y103474D01*
X200667Y103405D01*
X200889Y103307D01*
X201125Y103183D01*
X201360Y103044D01*
X201582Y102864D01*
X201596Y102850D01*
X201610Y102836D01*
X201652Y102794D01*
X201707Y102753D01*
X201846Y102614D01*
X202012Y102420D01*
X202192Y102184D01*
X202387Y101907D01*
X202567Y101588D01*
X202719Y101227D01*
Y101213D01*
X202733Y101186D01*
X202761Y101130D01*
X202775Y101047D01*
X202817Y100950D01*
X202844Y100839D01*
X202872Y100714D01*
X202914Y100561D01*
X202955Y100409D01*
X202983Y100229D01*
X203052Y99840D01*
X203094Y99410D01*
X203108Y98939D01*
Y98925D01*
Y98897D01*
Y98828D01*
Y98759D01*
X203094Y98661D01*
Y98551D01*
X203080Y98287D01*
X203038Y97982D01*
X202997Y97663D01*
X202927Y97330D01*
X202844Y96997D01*
Y96983D01*
X202830Y96956D01*
X202817Y96914D01*
X202803Y96859D01*
X202747Y96706D01*
X202664Y96512D01*
X202581Y96290D01*
X202470Y96068D01*
X202331Y95832D01*
X202192Y95610D01*
X202179Y95583D01*
X202123Y95513D01*
X202040Y95416D01*
X201929Y95292D01*
X201804Y95153D01*
X201652Y95014D01*
X201499Y94861D01*
X201319Y94737D01*
X201291Y94723D01*
X201236Y94681D01*
X201138Y94626D01*
X201000Y94556D01*
X200833Y94473D01*
X200639Y94404D01*
X200417Y94321D01*
X200168Y94251D01*
X200140D01*
X200098Y94237D01*
X200057Y94224D01*
X199918Y94210D01*
X199724Y94182D01*
X199502Y94154D01*
X199238Y94127D01*
X198947Y94113D01*
X198628Y94099D01*
X195175D01*
Y103696D01*
X198864D01*
X199114Y103682D01*
D02*
G37*
G36*
X37619Y74000D02*
X36440D01*
Y81503D01*
X36426Y81489D01*
X36357Y81433D01*
X36274Y81350D01*
X36135Y81253D01*
X35982Y81128D01*
X35788Y80990D01*
X35566Y80837D01*
X35317Y80685D01*
X35303D01*
X35289Y80671D01*
X35206Y80615D01*
X35067Y80546D01*
X34901Y80463D01*
X34706Y80366D01*
X34498Y80268D01*
X34290Y80171D01*
X34082Y80088D01*
Y81225D01*
X34096D01*
X34124Y81253D01*
X34179Y81267D01*
X34249Y81309D01*
X34332Y81350D01*
X34429Y81406D01*
X34665Y81544D01*
X34942Y81697D01*
X35220Y81891D01*
X35511Y82113D01*
X35802Y82349D01*
X35816Y82363D01*
X35830Y82376D01*
X35871Y82418D01*
X35927Y82460D01*
X36052Y82598D01*
X36218Y82765D01*
X36384Y82959D01*
X36565Y83181D01*
X36717Y83403D01*
X36856Y83638D01*
X37619D01*
Y74000D01*
D02*
G37*
G36*
X189563Y291583D02*
X189688D01*
X189979Y291569D01*
X190284Y291528D01*
X190617Y291486D01*
X190922Y291417D01*
X191074Y291375D01*
X191199Y291333D01*
X191213D01*
X191227Y291320D01*
X191310Y291278D01*
X191435Y291222D01*
X191588Y291125D01*
X191754Y291001D01*
X191934Y290834D01*
X192101Y290640D01*
X192267Y290418D01*
Y290404D01*
X192281Y290390D01*
X192336Y290307D01*
X192392Y290168D01*
X192475Y289988D01*
X192544Y289780D01*
X192614Y289531D01*
X192655Y289267D01*
X192669Y288976D01*
Y288962D01*
Y288934D01*
Y288879D01*
X192655Y288809D01*
Y288712D01*
X192642Y288615D01*
X192586Y288379D01*
X192503Y288102D01*
X192392Y287811D01*
X192225Y287520D01*
X192115Y287381D01*
X192004Y287242D01*
X191990Y287228D01*
X191976Y287215D01*
X191934Y287173D01*
X191879Y287131D01*
X191809Y287076D01*
X191726Y287020D01*
X191615Y286951D01*
X191504Y286868D01*
X191366Y286798D01*
X191213Y286729D01*
X191047Y286646D01*
X190866Y286577D01*
X190658Y286521D01*
X190450Y286452D01*
X190215Y286410D01*
X189965Y286369D01*
X189993Y286355D01*
X190048Y286327D01*
X190131Y286271D01*
X190242Y286216D01*
X190492Y286063D01*
X190617Y285966D01*
X190728Y285883D01*
X190755Y285855D01*
X190825Y285786D01*
X190936Y285675D01*
X191074Y285536D01*
X191227Y285342D01*
X191407Y285134D01*
X191588Y284885D01*
X191782Y284607D01*
X193432Y282000D01*
X191851D01*
X190589Y283997D01*
Y284011D01*
X190561Y284039D01*
X190534Y284080D01*
X190492Y284136D01*
X190395Y284288D01*
X190270Y284482D01*
X190117Y284690D01*
X189965Y284912D01*
X189812Y285120D01*
X189674Y285315D01*
X189660Y285328D01*
X189618Y285384D01*
X189549Y285467D01*
X189452Y285564D01*
X189244Y285772D01*
X189133Y285869D01*
X189022Y285952D01*
X189008Y285966D01*
X188980Y285980D01*
X188925Y286008D01*
X188842Y286050D01*
X188758Y286091D01*
X188661Y286133D01*
X188439Y286202D01*
X188426D01*
X188398Y286216D01*
X188342D01*
X188273Y286230D01*
X188176Y286244D01*
X188065D01*
X187912Y286258D01*
X186276D01*
Y282000D01*
X185000D01*
Y291597D01*
X189452D01*
X189563Y291583D01*
D02*
G37*
G36*
X200089Y290349D02*
X196247D01*
X195734Y287755D01*
X195748Y287769D01*
X195776Y287783D01*
X195817Y287811D01*
X195887Y287852D01*
X195970Y287894D01*
X196067Y287950D01*
X196289Y288060D01*
X196566Y288171D01*
X196871Y288269D01*
X197204Y288338D01*
X197371Y288366D01*
X197676D01*
X197759Y288352D01*
X197870Y288338D01*
X197995Y288324D01*
X198133Y288296D01*
X198286Y288255D01*
X198619Y288158D01*
X198799Y288088D01*
X198979Y287991D01*
X199160Y287894D01*
X199340Y287783D01*
X199506Y287644D01*
X199673Y287492D01*
X199687Y287478D01*
X199714Y287450D01*
X199756Y287409D01*
X199811Y287339D01*
X199881Y287242D01*
X199950Y287145D01*
X200033Y287020D01*
X200117Y286882D01*
X200186Y286729D01*
X200269Y286563D01*
X200338Y286369D01*
X200408Y286174D01*
X200463Y285966D01*
X200505Y285731D01*
X200533Y285495D01*
X200546Y285245D01*
Y285231D01*
Y285190D01*
Y285120D01*
X200533Y285023D01*
X200519Y284912D01*
X200505Y284788D01*
X200477Y284635D01*
X200449Y284482D01*
X200366Y284122D01*
X200228Y283747D01*
X200144Y283553D01*
X200033Y283373D01*
X199922Y283179D01*
X199784Y282999D01*
X199770Y282985D01*
X199742Y282943D01*
X199687Y282888D01*
X199617Y282818D01*
X199520Y282735D01*
X199409Y282624D01*
X199271Y282527D01*
X199118Y282416D01*
X198952Y282305D01*
X198757Y282208D01*
X198549Y282111D01*
X198328Y282014D01*
X198092Y281945D01*
X197828Y281889D01*
X197551Y281847D01*
X197260Y281834D01*
X197135D01*
X197038Y281847D01*
X196927Y281861D01*
X196802Y281875D01*
X196649Y281889D01*
X196497Y281931D01*
X196150Y282014D01*
X195804Y282139D01*
X195623Y282222D01*
X195443Y282319D01*
X195277Y282430D01*
X195110Y282555D01*
X195096Y282569D01*
X195068Y282582D01*
X195041Y282638D01*
X194985Y282693D01*
X194916Y282763D01*
X194847Y282846D01*
X194763Y282957D01*
X194694Y283082D01*
X194611Y283207D01*
X194528Y283359D01*
X194375Y283692D01*
X194250Y284080D01*
X194209Y284288D01*
X194181Y284510D01*
X195415Y284607D01*
Y284593D01*
Y284566D01*
X195429Y284524D01*
X195443Y284455D01*
X195485Y284302D01*
X195540Y284094D01*
X195623Y283886D01*
X195734Y283650D01*
X195873Y283442D01*
X196039Y283248D01*
X196067Y283234D01*
X196122Y283179D01*
X196233Y283109D01*
X196386Y283026D01*
X196552Y282943D01*
X196760Y282874D01*
X196996Y282818D01*
X197260Y282804D01*
X197343D01*
X197398Y282818D01*
X197565Y282832D01*
X197759Y282888D01*
X197995Y282957D01*
X198230Y283068D01*
X198480Y283234D01*
X198591Y283331D01*
X198702Y283442D01*
X198716Y283456D01*
X198730Y283470D01*
X198757Y283512D01*
X198799Y283553D01*
X198896Y283706D01*
X199007Y283900D01*
X199104Y284136D01*
X199201Y284427D01*
X199271Y284774D01*
X199298Y284954D01*
Y285148D01*
Y285162D01*
Y285190D01*
Y285245D01*
X199284Y285315D01*
Y285398D01*
X199271Y285495D01*
X199229Y285717D01*
X199160Y285980D01*
X199063Y286244D01*
X198924Y286493D01*
X198730Y286729D01*
Y286743D01*
X198702Y286757D01*
X198633Y286826D01*
X198508Y286923D01*
X198341Y287034D01*
X198120Y287131D01*
X197870Y287228D01*
X197579Y287298D01*
X197412Y287325D01*
X197149D01*
X197038Y287312D01*
X196899Y287298D01*
X196733Y287256D01*
X196566Y287215D01*
X196386Y287145D01*
X196206Y287062D01*
X196192Y287048D01*
X196136Y287020D01*
X196053Y286951D01*
X195942Y286882D01*
X195831Y286785D01*
X195720Y286660D01*
X195595Y286535D01*
X195498Y286382D01*
X194389Y286535D01*
X195318Y291472D01*
X200089D01*
Y290349D01*
D02*
G37*
G36*
X43563Y218583D02*
X43688D01*
X43979Y218569D01*
X44284Y218528D01*
X44617Y218486D01*
X44922Y218417D01*
X45074Y218375D01*
X45199Y218333D01*
X45213D01*
X45227Y218320D01*
X45310Y218278D01*
X45435Y218223D01*
X45588Y218125D01*
X45754Y218001D01*
X45934Y217834D01*
X46101Y217640D01*
X46267Y217418D01*
Y217404D01*
X46281Y217390D01*
X46336Y217307D01*
X46392Y217169D01*
X46475Y216988D01*
X46544Y216780D01*
X46614Y216531D01*
X46655Y216267D01*
X46669Y215976D01*
Y215962D01*
Y215934D01*
Y215879D01*
X46655Y215809D01*
Y215712D01*
X46642Y215615D01*
X46586Y215380D01*
X46503Y215102D01*
X46392Y214811D01*
X46225Y214520D01*
X46115Y214381D01*
X46003Y214242D01*
X45990Y214228D01*
X45976Y214214D01*
X45934Y214173D01*
X45879Y214131D01*
X45809Y214076D01*
X45726Y214020D01*
X45615Y213951D01*
X45504Y213868D01*
X45366Y213799D01*
X45213Y213729D01*
X45047Y213646D01*
X44866Y213577D01*
X44658Y213521D01*
X44450Y213452D01*
X44215Y213410D01*
X43965Y213369D01*
X43993Y213355D01*
X44048Y213327D01*
X44131Y213272D01*
X44242Y213216D01*
X44492Y213064D01*
X44617Y212966D01*
X44728Y212883D01*
X44755Y212855D01*
X44825Y212786D01*
X44936Y212675D01*
X45074Y212537D01*
X45227Y212342D01*
X45407Y212134D01*
X45588Y211885D01*
X45782Y211607D01*
X47432Y209000D01*
X45851D01*
X44589Y210997D01*
Y211011D01*
X44561Y211039D01*
X44534Y211080D01*
X44492Y211136D01*
X44395Y211288D01*
X44270Y211483D01*
X44117Y211691D01*
X43965Y211912D01*
X43812Y212120D01*
X43674Y212315D01*
X43660Y212328D01*
X43618Y212384D01*
X43549Y212467D01*
X43452Y212564D01*
X43244Y212772D01*
X43133Y212869D01*
X43022Y212952D01*
X43008Y212966D01*
X42980Y212980D01*
X42925Y213008D01*
X42842Y213050D01*
X42758Y213091D01*
X42661Y213133D01*
X42439Y213202D01*
X42425D01*
X42398Y213216D01*
X42342D01*
X42273Y213230D01*
X42176Y213244D01*
X42065D01*
X41912Y213258D01*
X40276D01*
Y209000D01*
X39000D01*
Y218597D01*
X43452D01*
X43563Y218583D01*
D02*
G37*
G36*
X51773Y218625D02*
X51870D01*
X51981Y218611D01*
X52244Y218555D01*
X52536Y218486D01*
X52841Y218375D01*
X53146Y218209D01*
X53298Y218112D01*
X53437Y218001D01*
X53451Y217987D01*
X53465Y217973D01*
X53506Y217931D01*
X53548Y217890D01*
X53617Y217820D01*
X53673Y217737D01*
X53825Y217543D01*
X53978Y217293D01*
X54117Y216988D01*
X54241Y216642D01*
X54325Y216253D01*
X53146Y216156D01*
Y216170D01*
X53132Y216184D01*
X53118Y216267D01*
X53076Y216392D01*
X53021Y216544D01*
X52965Y216711D01*
X52882Y216877D01*
X52785Y217030D01*
X52688Y217155D01*
X52660Y217182D01*
X52605Y217238D01*
X52508Y217321D01*
X52369Y217418D01*
X52189Y217501D01*
X51995Y217585D01*
X51759Y217640D01*
X51509Y217668D01*
X51412D01*
X51301Y217654D01*
X51177Y217626D01*
X51010Y217585D01*
X50844Y217529D01*
X50677Y217460D01*
X50511Y217349D01*
X50483Y217335D01*
X50414Y217279D01*
X50317Y217182D01*
X50192Y217044D01*
X50053Y216877D01*
X49901Y216683D01*
X49762Y216434D01*
X49623Y216156D01*
Y216142D01*
X49609Y216115D01*
X49595Y216073D01*
X49568Y216017D01*
X49554Y215934D01*
X49526Y215837D01*
X49498Y215726D01*
X49471Y215588D01*
X49429Y215435D01*
X49401Y215268D01*
X49374Y215088D01*
X49360Y214894D01*
X49332Y214672D01*
X49318Y214450D01*
X49304Y214201D01*
Y213951D01*
X49318Y213965D01*
X49374Y214048D01*
X49471Y214159D01*
X49595Y214298D01*
X49734Y214464D01*
X49914Y214617D01*
X50109Y214769D01*
X50331Y214908D01*
X50344D01*
X50358Y214922D01*
X50441Y214963D01*
X50566Y215005D01*
X50733Y215074D01*
X50927Y215130D01*
X51149Y215172D01*
X51385Y215213D01*
X51634Y215227D01*
X51745D01*
X51828Y215213D01*
X51939Y215199D01*
X52050Y215185D01*
X52189Y215158D01*
X52327Y215116D01*
X52646Y215019D01*
X52813Y214950D01*
X52979Y214853D01*
X53146Y214755D01*
X53326Y214645D01*
X53492Y214506D01*
X53645Y214353D01*
X53659Y214339D01*
X53687Y214312D01*
X53728Y214270D01*
X53770Y214201D01*
X53839Y214104D01*
X53909Y214007D01*
X53978Y213882D01*
X54061Y213743D01*
X54144Y213591D01*
X54214Y213424D01*
X54283Y213230D01*
X54352Y213036D01*
X54394Y212828D01*
X54436Y212592D01*
X54463Y212356D01*
X54477Y212106D01*
Y212093D01*
Y212065D01*
Y212023D01*
Y211954D01*
X54463Y211871D01*
Y211788D01*
X54422Y211566D01*
X54380Y211302D01*
X54311Y211025D01*
X54214Y210720D01*
X54075Y210429D01*
Y210415D01*
X54061Y210401D01*
X54033Y210359D01*
X54006Y210304D01*
X53922Y210165D01*
X53798Y209985D01*
X53645Y209790D01*
X53465Y209596D01*
X53243Y209402D01*
X53007Y209236D01*
X52993D01*
X52979Y209222D01*
X52938Y209194D01*
X52882Y209180D01*
X52744Y209111D01*
X52563Y209042D01*
X52327Y208958D01*
X52064Y208903D01*
X51773Y208848D01*
X51454Y208834D01*
X51385D01*
X51315Y208848D01*
X51204D01*
X51079Y208861D01*
X50941Y208889D01*
X50774Y208931D01*
X50608Y208972D01*
X50414Y209028D01*
X50219Y209097D01*
X50025Y209180D01*
X49817Y209291D01*
X49623Y209416D01*
X49429Y209555D01*
X49235Y209721D01*
X49055Y209915D01*
X49041Y209929D01*
X49013Y209971D01*
X48971Y210026D01*
X48916Y210123D01*
X48833Y210248D01*
X48763Y210387D01*
X48680Y210567D01*
X48597Y210761D01*
X48500Y210997D01*
X48417Y211261D01*
X48347Y211552D01*
X48278Y211871D01*
X48209Y212231D01*
X48167Y212620D01*
X48139Y213036D01*
X48125Y213479D01*
Y213493D01*
Y213507D01*
Y213549D01*
Y213604D01*
X48139Y213743D01*
Y213937D01*
X48153Y214159D01*
X48181Y214423D01*
X48209Y214714D01*
X48250Y215033D01*
X48306Y215352D01*
X48375Y215699D01*
X48458Y216031D01*
X48555Y216364D01*
X48680Y216683D01*
X48819Y216988D01*
X48971Y217279D01*
X49152Y217529D01*
X49166Y217543D01*
X49193Y217571D01*
X49249Y217626D01*
X49318Y217709D01*
X49401Y217793D01*
X49512Y217876D01*
X49651Y217987D01*
X49790Y218084D01*
X49956Y218181D01*
X50136Y218292D01*
X50344Y218375D01*
X50552Y218472D01*
X50788Y218542D01*
X51038Y218597D01*
X51301Y218625D01*
X51579Y218639D01*
X51690D01*
X51773Y218625D01*
D02*
G37*
G36*
X21379Y166407D02*
X21490Y166393D01*
X21615Y166365D01*
X21753Y166338D01*
X21906Y166310D01*
X22239Y166199D01*
X22419Y166116D01*
X22585Y166033D01*
X22766Y165921D01*
X22946Y165797D01*
X23126Y165658D01*
X23293Y165492D01*
X23307Y165478D01*
X23334Y165450D01*
X23376Y165394D01*
X23431Y165325D01*
X23501Y165242D01*
X23570Y165131D01*
X23653Y165006D01*
X23723Y164854D01*
X23806Y164701D01*
X23889Y164521D01*
X23958Y164340D01*
X24028Y164132D01*
X24083Y163911D01*
X24125Y163675D01*
X24153Y163439D01*
X24166Y163176D01*
Y163162D01*
Y163120D01*
Y163051D01*
X24153Y162967D01*
X24139Y162857D01*
X24125Y162732D01*
X24097Y162593D01*
X24069Y162440D01*
X23986Y162108D01*
X23847Y161761D01*
X23764Y161581D01*
X23667Y161414D01*
X23542Y161248D01*
X23417Y161081D01*
X23404Y161068D01*
X23376Y161040D01*
X23334Y160998D01*
X23279Y160957D01*
X23210Y160887D01*
X23112Y160818D01*
X23015Y160735D01*
X22891Y160651D01*
X22752Y160568D01*
X22613Y160485D01*
X22280Y160333D01*
X21892Y160208D01*
X21684Y160166D01*
X21462Y160138D01*
X21309Y161317D01*
X21323D01*
X21351Y161331D01*
X21407Y161345D01*
X21476Y161359D01*
X21559Y161373D01*
X21656Y161400D01*
X21864Y161470D01*
X22114Y161567D01*
X22350Y161692D01*
X22572Y161830D01*
X22766Y161997D01*
X22780Y162024D01*
X22835Y162080D01*
X22904Y162191D01*
X22974Y162330D01*
X23057Y162496D01*
X23126Y162704D01*
X23182Y162940D01*
X23196Y163189D01*
Y163203D01*
Y163231D01*
Y163273D01*
X23182Y163328D01*
X23168Y163481D01*
X23126Y163675D01*
X23057Y163897D01*
X22960Y164132D01*
X22821Y164368D01*
X22627Y164590D01*
X22599Y164618D01*
X22516Y164687D01*
X22391Y164770D01*
X22225Y164881D01*
X22017Y164992D01*
X21781Y165075D01*
X21504Y165145D01*
X21199Y165173D01*
X21115D01*
X21060Y165159D01*
X20907Y165145D01*
X20727Y165103D01*
X20505Y165048D01*
X20283Y164951D01*
X20061Y164812D01*
X19853Y164632D01*
X19826Y164604D01*
X19770Y164535D01*
X19687Y164424D01*
X19590Y164271D01*
X19493Y164077D01*
X19410Y163841D01*
X19354Y163578D01*
X19326Y163286D01*
Y163273D01*
Y163231D01*
Y163162D01*
X19340Y163065D01*
X19354Y162940D01*
X19382Y162801D01*
X19410Y162635D01*
X19451Y162454D01*
X18411Y162593D01*
Y162607D01*
Y162662D01*
X18425Y162718D01*
Y162773D01*
Y162787D01*
Y162801D01*
Y162843D01*
Y162898D01*
X18397Y163051D01*
X18369Y163231D01*
X18328Y163439D01*
X18259Y163675D01*
X18161Y163897D01*
X18037Y164132D01*
Y164146D01*
X18023Y164160D01*
X17967Y164230D01*
X17870Y164327D01*
X17745Y164438D01*
X17565Y164548D01*
X17357Y164646D01*
X17121Y164715D01*
X16983Y164743D01*
X16719D01*
X16608Y164715D01*
X16456Y164687D01*
X16289Y164632D01*
X16109Y164562D01*
X15929Y164452D01*
X15762Y164299D01*
X15748Y164285D01*
X15693Y164216D01*
X15624Y164119D01*
X15540Y163994D01*
X15471Y163827D01*
X15402Y163633D01*
X15346Y163411D01*
X15332Y163162D01*
Y163148D01*
Y163134D01*
Y163051D01*
X15360Y162926D01*
X15388Y162759D01*
X15443Y162579D01*
X15512Y162399D01*
X15624Y162205D01*
X15762Y162024D01*
X15776Y162011D01*
X15845Y161955D01*
X15942Y161872D01*
X16081Y161775D01*
X16261Y161678D01*
X16483Y161581D01*
X16747Y161497D01*
X17052Y161442D01*
X16844Y160263D01*
X16830D01*
X16788Y160277D01*
X16733Y160291D01*
X16650Y160305D01*
X16553Y160333D01*
X16442Y160374D01*
X16178Y160457D01*
X15873Y160596D01*
X15568Y160763D01*
X15277Y160970D01*
X15013Y161234D01*
X14999Y161248D01*
X14986Y161276D01*
X14958Y161317D01*
X14916Y161373D01*
X14861Y161442D01*
X14805Y161539D01*
X14750Y161636D01*
X14680Y161761D01*
X14569Y162038D01*
X14459Y162357D01*
X14389Y162732D01*
X14361Y162926D01*
Y163134D01*
Y163148D01*
Y163176D01*
Y163217D01*
Y163273D01*
X14375Y163425D01*
X14403Y163605D01*
X14445Y163827D01*
X14514Y164077D01*
X14597Y164327D01*
X14708Y164576D01*
Y164590D01*
X14722Y164604D01*
X14764Y164687D01*
X14847Y164812D01*
X14944Y164951D01*
X15083Y165117D01*
X15235Y165284D01*
X15416Y165450D01*
X15624Y165589D01*
X15651Y165602D01*
X15721Y165644D01*
X15845Y165700D01*
X15998Y165769D01*
X16178Y165838D01*
X16386Y165894D01*
X16622Y165935D01*
X16858Y165949D01*
X16969D01*
X17080Y165935D01*
X17232Y165908D01*
X17413Y165866D01*
X17607Y165797D01*
X17801Y165714D01*
X17995Y165602D01*
X18023Y165589D01*
X18078Y165547D01*
X18175Y165464D01*
X18286Y165353D01*
X18411Y165214D01*
X18550Y165048D01*
X18674Y164854D01*
X18799Y164618D01*
Y164632D01*
X18813Y164660D01*
X18827Y164701D01*
X18841Y164757D01*
X18896Y164909D01*
X18980Y165103D01*
X19091Y165325D01*
X19229Y165547D01*
X19410Y165755D01*
X19618Y165949D01*
X19645Y165963D01*
X19728Y166019D01*
X19867Y166102D01*
X20048Y166185D01*
X20269Y166268D01*
X20533Y166351D01*
X20838Y166407D01*
X21171Y166421D01*
X21296D01*
X21379Y166407D01*
D02*
G37*
G36*
X264868Y215583D02*
X265146Y215569D01*
X265423Y215541D01*
X265700Y215500D01*
X265936Y215458D01*
X265950D01*
X265978Y215444D01*
X266019D01*
X266075Y215417D01*
X266227Y215375D01*
X266422Y215306D01*
X266644Y215209D01*
X266879Y215084D01*
X267115Y214945D01*
X267337Y214765D01*
X267351Y214751D01*
X267365Y214737D01*
X267406Y214695D01*
X267462Y214654D01*
X267600Y214515D01*
X267767Y214321D01*
X267947Y214085D01*
X268141Y213808D01*
X268322Y213489D01*
X268474Y213128D01*
Y213114D01*
X268488Y213087D01*
X268516Y213031D01*
X268530Y212948D01*
X268571Y212851D01*
X268599Y212740D01*
X268627Y212615D01*
X268668Y212463D01*
X268710Y212310D01*
X268738Y212130D01*
X268807Y211742D01*
X268849Y211312D01*
X268862Y210840D01*
Y210826D01*
Y210798D01*
Y210729D01*
Y210660D01*
X268849Y210563D01*
Y210452D01*
X268835Y210188D01*
X268793Y209883D01*
X268752Y209564D01*
X268682Y209231D01*
X268599Y208899D01*
Y208885D01*
X268585Y208857D01*
X268571Y208815D01*
X268557Y208760D01*
X268502Y208607D01*
X268419Y208413D01*
X268335Y208191D01*
X268225Y207969D01*
X268086Y207733D01*
X267947Y207512D01*
X267933Y207484D01*
X267878Y207415D01*
X267795Y207318D01*
X267684Y207193D01*
X267559Y207054D01*
X267406Y206915D01*
X267254Y206763D01*
X267073Y206638D01*
X267046Y206624D01*
X266990Y206583D01*
X266893Y206527D01*
X266754Y206458D01*
X266588Y206374D01*
X266394Y206305D01*
X266172Y206222D01*
X265922Y206152D01*
X265895D01*
X265853Y206139D01*
X265812Y206125D01*
X265673Y206111D01*
X265479Y206083D01*
X265257Y206056D01*
X264993Y206028D01*
X264702Y206014D01*
X264383Y206000D01*
X260930D01*
Y215597D01*
X264619D01*
X264868Y215583D01*
D02*
G37*
G36*
X24000Y146034D02*
Y144703D01*
X14403Y140986D01*
Y142373D01*
X21379Y144869D01*
X21393D01*
X21421Y144883D01*
X21462Y144897D01*
X21518Y144925D01*
X21601Y144939D01*
X21684Y144966D01*
X21892Y145036D01*
X22128Y145119D01*
X22391Y145202D01*
X22946Y145368D01*
X22932D01*
X22904Y145382D01*
X22863Y145396D01*
X22807Y145410D01*
X22655Y145452D01*
X22447Y145521D01*
X22211Y145590D01*
X21948Y145674D01*
X21670Y145771D01*
X21379Y145882D01*
X14403Y148489D01*
Y149779D01*
X24000Y146034D01*
D02*
G37*
G36*
X19437Y158849D02*
X19548D01*
X19812Y158835D01*
X20117Y158793D01*
X20436Y158751D01*
X20769Y158682D01*
X21102Y158599D01*
X21115D01*
X21143Y158585D01*
X21185Y158571D01*
X21240Y158557D01*
X21393Y158502D01*
X21587Y158419D01*
X21809Y158336D01*
X22031Y158225D01*
X22266Y158086D01*
X22488Y157947D01*
X22516Y157933D01*
X22585Y157878D01*
X22682Y157795D01*
X22807Y157684D01*
X22946Y157559D01*
X23085Y157406D01*
X23237Y157254D01*
X23362Y157073D01*
X23376Y157046D01*
X23417Y156990D01*
X23473Y156893D01*
X23542Y156755D01*
X23626Y156588D01*
X23695Y156394D01*
X23778Y156172D01*
X23847Y155922D01*
Y155908D01*
Y155895D01*
X23861Y155853D01*
X23875Y155811D01*
X23889Y155673D01*
X23917Y155479D01*
X23944Y155257D01*
X23972Y154993D01*
X23986Y154702D01*
X24000Y154383D01*
Y150930D01*
X14403D01*
Y154230D01*
Y154244D01*
Y154286D01*
Y154341D01*
Y154411D01*
Y154508D01*
Y154619D01*
X14417Y154868D01*
X14431Y155146D01*
X14459Y155423D01*
X14500Y155701D01*
X14542Y155936D01*
Y155950D01*
X14556Y155978D01*
Y156019D01*
X14583Y156075D01*
X14625Y156228D01*
X14694Y156422D01*
X14791Y156644D01*
X14916Y156879D01*
X15055Y157115D01*
X15235Y157337D01*
X15249Y157351D01*
X15263Y157365D01*
X15304Y157406D01*
X15346Y157462D01*
X15485Y157600D01*
X15679Y157767D01*
X15915Y157947D01*
X16192Y158141D01*
X16511Y158322D01*
X16872Y158474D01*
X16885D01*
X16913Y158488D01*
X16969Y158516D01*
X17052Y158530D01*
X17149Y158571D01*
X17260Y158599D01*
X17385Y158627D01*
X17537Y158668D01*
X17690Y158710D01*
X17870Y158738D01*
X18259Y158807D01*
X18688Y158849D01*
X19160Y158862D01*
X19340D01*
X19437Y158849D01*
D02*
G37*
G36*
X273536Y215625D02*
X273647Y215611D01*
X273786Y215597D01*
X273938Y215569D01*
X274091Y215541D01*
X274452Y215444D01*
X274812Y215306D01*
X274992Y215222D01*
X275173Y215125D01*
X275339Y215001D01*
X275492Y214862D01*
X275506Y214848D01*
X275533Y214834D01*
X275561Y214779D01*
X275616Y214723D01*
X275686Y214654D01*
X275755Y214557D01*
X275824Y214460D01*
X275908Y214335D01*
X276046Y214071D01*
X276185Y213739D01*
X276241Y213572D01*
X276268Y213378D01*
X276296Y213184D01*
X276310Y212976D01*
Y212948D01*
Y212879D01*
X276296Y212768D01*
X276282Y212615D01*
X276254Y212449D01*
X276199Y212255D01*
X276143Y212047D01*
X276060Y211839D01*
X276046Y211811D01*
X276019Y211742D01*
X275963Y211631D01*
X275880Y211478D01*
X275769Y211312D01*
X275630Y211104D01*
X275464Y210896D01*
X275270Y210660D01*
X275242Y210632D01*
X275173Y210549D01*
X275103Y210480D01*
X275034Y210410D01*
X274951Y210327D01*
X274840Y210216D01*
X274729Y210105D01*
X274590Y209980D01*
X274452Y209841D01*
X274285Y209689D01*
X274105Y209536D01*
X273911Y209356D01*
X273689Y209176D01*
X273467Y208982D01*
X273453Y208968D01*
X273425Y208940D01*
X273370Y208899D01*
X273300Y208843D01*
X273217Y208760D01*
X273120Y208677D01*
X272898Y208496D01*
X272662Y208288D01*
X272441Y208080D01*
X272246Y207900D01*
X272163Y207831D01*
X272094Y207761D01*
X272080Y207747D01*
X272038Y207706D01*
X271983Y207650D01*
X271914Y207567D01*
X271844Y207470D01*
X271761Y207373D01*
X271595Y207137D01*
X276324D01*
Y206000D01*
X269958D01*
Y206014D01*
Y206069D01*
Y206152D01*
X269972Y206264D01*
X269986Y206388D01*
X270014Y206527D01*
X270041Y206666D01*
X270097Y206818D01*
Y206832D01*
X270111Y206846D01*
X270138Y206929D01*
X270194Y207054D01*
X270277Y207220D01*
X270388Y207415D01*
X270527Y207637D01*
X270679Y207858D01*
X270873Y208094D01*
Y208108D01*
X270901Y208122D01*
X270970Y208205D01*
X271095Y208330D01*
X271276Y208510D01*
X271484Y208718D01*
X271747Y208968D01*
X272066Y209245D01*
X272413Y209536D01*
X272427Y209550D01*
X272482Y209592D01*
X272565Y209661D01*
X272662Y209744D01*
X272787Y209855D01*
X272940Y209980D01*
X273092Y210119D01*
X273273Y210271D01*
X273619Y210604D01*
X273966Y210937D01*
X274132Y211104D01*
X274285Y211270D01*
X274424Y211423D01*
X274535Y211575D01*
Y211589D01*
X274562Y211603D01*
X274590Y211644D01*
X274618Y211700D01*
X274715Y211852D01*
X274826Y212033D01*
X274923Y212255D01*
X275020Y212490D01*
X275075Y212754D01*
X275103Y213004D01*
Y213017D01*
Y213031D01*
X275089Y213114D01*
X275075Y213253D01*
X275034Y213406D01*
X274979Y213600D01*
X274881Y213794D01*
X274757Y213988D01*
X274590Y214182D01*
X274562Y214210D01*
X274493Y214266D01*
X274396Y214335D01*
X274243Y214432D01*
X274049Y214515D01*
X273827Y214598D01*
X273564Y214654D01*
X273273Y214668D01*
X273189D01*
X273134Y214654D01*
X272968Y214640D01*
X272773Y214598D01*
X272565Y214543D01*
X272330Y214446D01*
X272108Y214321D01*
X271900Y214155D01*
X271872Y214127D01*
X271817Y214058D01*
X271733Y213947D01*
X271650Y213780D01*
X271553Y213586D01*
X271470Y213336D01*
X271414Y213059D01*
X271387Y212740D01*
X270180Y212865D01*
Y212879D01*
X270194Y212920D01*
Y212990D01*
X270208Y213087D01*
X270236Y213198D01*
X270263Y213323D01*
X270305Y213475D01*
X270346Y213628D01*
X270457Y213960D01*
X270624Y214293D01*
X270721Y214460D01*
X270846Y214626D01*
X270970Y214779D01*
X271109Y214917D01*
X271123Y214931D01*
X271151Y214945D01*
X271192Y214987D01*
X271262Y215028D01*
X271345Y215084D01*
X271442Y215139D01*
X271553Y215209D01*
X271692Y215278D01*
X271844Y215347D01*
X272011Y215417D01*
X272191Y215472D01*
X272385Y215528D01*
X272593Y215569D01*
X272815Y215611D01*
X273051Y215625D01*
X273300Y215639D01*
X273439D01*
X273536Y215625D01*
D02*
G37*
G36*
X217972Y86740D02*
X218266Y86701D01*
X218600Y86642D01*
X218953Y86544D01*
X219316Y86397D01*
X219325Y86387D01*
X219355Y86377D01*
X219414Y86357D01*
X219482Y86308D01*
X219580Y86269D01*
X219678Y86210D01*
X219786Y86142D01*
X219924Y86063D01*
X220061Y85985D01*
X220208Y85877D01*
X220532Y85651D01*
X220865Y85377D01*
X221208Y85053D01*
X221218Y85043D01*
X221238Y85024D01*
X221287Y84975D01*
X221336Y84926D01*
X221395Y84847D01*
X221473Y84769D01*
X221649Y84573D01*
X221836Y84327D01*
X222032Y84073D01*
X222218Y83788D01*
X222395Y83494D01*
X222405Y83484D01*
X222414Y83455D01*
X222434Y83415D01*
X222463Y83366D01*
X222532Y83219D01*
X222611Y83023D01*
X222709Y82808D01*
X222787Y82572D01*
X222856Y82307D01*
X222915Y82052D01*
X222924Y82023D01*
X222934Y81935D01*
X222944Y81807D01*
X222954Y81641D01*
X222964Y81454D01*
X222954Y81248D01*
Y81032D01*
X222915Y80817D01*
X222905Y80787D01*
X222895Y80719D01*
X222866Y80611D01*
X222817Y80464D01*
X222758Y80287D01*
X222669Y80101D01*
X222571Y79885D01*
X222444Y79660D01*
X222434Y79650D01*
X222424Y79640D01*
X222405Y79601D01*
X222385Y79562D01*
X222297Y79454D01*
X222179Y79297D01*
X222042Y79120D01*
X221875Y78914D01*
X221679Y78699D01*
X221463Y78463D01*
X219021Y76021D01*
X212235Y82808D01*
X214569Y85141D01*
X214579Y85151D01*
X214608Y85181D01*
X214648Y85220D01*
X214697Y85269D01*
X214765Y85337D01*
X214844Y85416D01*
X215030Y85583D01*
X215236Y85769D01*
X215452Y85946D01*
X215677Y86112D01*
X215874Y86250D01*
X215883Y86259D01*
X215913Y86269D01*
X215942Y86299D01*
X216001Y86318D01*
X216138Y86397D01*
X216325Y86485D01*
X216550Y86573D01*
X216805Y86652D01*
X217070Y86720D01*
X217354Y86750D01*
X217452D01*
X217521Y86760D01*
X217717D01*
X217972Y86740D01*
D02*
G37*
G36*
X228661Y85661D02*
X227828Y84828D01*
X222522Y90133D01*
Y90113D01*
X222512Y90025D01*
Y89907D01*
X222483Y89741D01*
X222463Y89544D01*
X222424Y89309D01*
X222375Y89044D01*
X222307Y88760D01*
X222297Y88750D01*
Y88731D01*
X222277Y88632D01*
X222228Y88485D01*
X222169Y88309D01*
X222101Y88103D01*
X222022Y87887D01*
X221944Y87671D01*
X221856Y87465D01*
X221051Y88270D01*
X221061Y88279D01*
Y88319D01*
X221091Y88368D01*
X221110Y88446D01*
X221140Y88534D01*
X221169Y88642D01*
X221238Y88907D01*
X221326Y89211D01*
X221385Y89544D01*
X221434Y89907D01*
X221473Y90280D01*
Y90300D01*
Y90319D01*
Y90378D01*
X221483Y90447D01*
X221473Y90633D01*
Y90868D01*
X221453Y91123D01*
X221424Y91408D01*
X221375Y91672D01*
X221306Y91937D01*
X221846Y92477D01*
X228661Y85661D01*
D02*
G37*
G36*
X256034Y206000D02*
X254703D01*
X250986Y215597D01*
X252373D01*
X254869Y208621D01*
Y208607D01*
X254883Y208580D01*
X254897Y208538D01*
X254925Y208482D01*
X254939Y208399D01*
X254966Y208316D01*
X255036Y208108D01*
X255119Y207872D01*
X255202Y207609D01*
X255369Y207054D01*
Y207068D01*
X255382Y207096D01*
X255396Y207137D01*
X255410Y207193D01*
X255452Y207345D01*
X255521Y207553D01*
X255590Y207789D01*
X255674Y208053D01*
X255771Y208330D01*
X255882Y208621D01*
X258489Y215597D01*
X259779D01*
X256034Y206000D01*
D02*
G37*
G36*
X215560Y72560D02*
X214618Y71618D01*
X205204Y75776D01*
X206185Y76757D01*
X212883Y73589D01*
X212892Y73580D01*
X212922Y73570D01*
X212961Y73550D01*
X213020Y73531D01*
X213088Y73482D01*
X213167Y73442D01*
X213363Y73344D01*
X213589Y73236D01*
X213834Y73109D01*
X214344Y72834D01*
X214334Y72844D01*
X214324Y72874D01*
X214305Y72913D01*
X214275Y72962D01*
X214197Y73099D01*
X214099Y73295D01*
X213981Y73511D01*
X213853Y73756D01*
X213726Y74021D01*
X213598Y74305D01*
X210509Y81081D01*
X211421Y81994D01*
X215560Y72560D01*
D02*
G37*
G36*
X157835Y272910D02*
X157962Y272896D01*
X158117Y272882D01*
X158272Y272868D01*
X158455Y272826D01*
X158836Y272741D01*
X159259Y272614D01*
X159471Y272530D01*
X159668Y272431D01*
X159865Y272304D01*
X160063Y272177D01*
X160077Y272163D01*
X160105Y272149D01*
X160161Y272107D01*
X160232Y272036D01*
X160302Y271966D01*
X160401Y271867D01*
X160500Y271754D01*
X160612Y271642D01*
X160725Y271500D01*
X160838Y271331D01*
X160965Y271162D01*
X161078Y270979D01*
X161176Y270767D01*
X161289Y270556D01*
X161374Y270330D01*
X161458Y270077D01*
X160189Y269781D01*
Y269795D01*
X160175Y269823D01*
X160147Y269879D01*
X160119Y269950D01*
X160091Y270034D01*
X160049Y270147D01*
X159936Y270373D01*
X159795Y270627D01*
X159626Y270880D01*
X159414Y271120D01*
X159189Y271331D01*
X159160Y271360D01*
X159076Y271416D01*
X158935Y271486D01*
X158752Y271585D01*
X158512Y271670D01*
X158244Y271754D01*
X157920Y271811D01*
X157567Y271825D01*
X157455D01*
X157384Y271811D01*
X157285D01*
X157173Y271796D01*
X156905Y271754D01*
X156609Y271698D01*
X156299Y271599D01*
X155975Y271458D01*
X155678Y271275D01*
X155664D01*
X155650Y271247D01*
X155552Y271176D01*
X155425Y271063D01*
X155270Y270894D01*
X155086Y270683D01*
X154917Y270443D01*
X154762Y270147D01*
X154621Y269823D01*
Y269809D01*
X154607Y269781D01*
X154593Y269738D01*
X154579Y269668D01*
X154551Y269583D01*
X154522Y269485D01*
X154480Y269245D01*
X154424Y268963D01*
X154367Y268653D01*
X154339Y268315D01*
X154325Y267948D01*
Y267934D01*
Y267892D01*
Y267821D01*
Y267737D01*
X154339Y267638D01*
Y267511D01*
X154353Y267370D01*
X154367Y267215D01*
X154410Y266877D01*
X154480Y266510D01*
X154565Y266144D01*
X154677Y265777D01*
Y265763D01*
X154692Y265735D01*
X154720Y265693D01*
X154748Y265622D01*
X154833Y265453D01*
X154959Y265256D01*
X155114Y265030D01*
X155312Y264790D01*
X155538Y264579D01*
X155805Y264382D01*
X155819D01*
X155848Y264367D01*
X155890Y264339D01*
X155946Y264311D01*
X156017Y264283D01*
X156101Y264240D01*
X156299Y264156D01*
X156552Y264071D01*
X156834Y264001D01*
X157144Y263944D01*
X157469Y263930D01*
X157567D01*
X157652Y263944D01*
X157751D01*
X157849Y263959D01*
X158103Y264015D01*
X158399Y264086D01*
X158695Y264198D01*
X159005Y264353D01*
X159160Y264438D01*
X159301Y264551D01*
X159316Y264565D01*
X159330Y264579D01*
X159372Y264621D01*
X159428Y264664D01*
X159485Y264734D01*
X159555Y264818D01*
X159640Y264903D01*
X159710Y265016D01*
X159795Y265143D01*
X159893Y265284D01*
X159978Y265425D01*
X160063Y265594D01*
X160133Y265777D01*
X160204Y265975D01*
X160274Y266186D01*
X160330Y266411D01*
X161627Y266087D01*
Y266073D01*
X161613Y266017D01*
X161585Y265932D01*
X161543Y265819D01*
X161500Y265693D01*
X161444Y265537D01*
X161374Y265368D01*
X161289Y265185D01*
X161092Y264790D01*
X160838Y264396D01*
X160683Y264198D01*
X160528Y264001D01*
X160359Y263832D01*
X160161Y263663D01*
X160147Y263648D01*
X160119Y263620D01*
X160049Y263592D01*
X159978Y263536D01*
X159865Y263465D01*
X159753Y263395D01*
X159597Y263324D01*
X159442Y263254D01*
X159259Y263169D01*
X159062Y263099D01*
X158850Y263028D01*
X158625Y262958D01*
X158385Y262901D01*
X158131Y262873D01*
X157864Y262845D01*
X157582Y262831D01*
X157427D01*
X157314Y262845D01*
X157187D01*
X157032Y262859D01*
X156863Y262887D01*
X156665Y262915D01*
X156256Y262986D01*
X155834Y263099D01*
X155411Y263254D01*
X155213Y263352D01*
X155016Y263465D01*
X155002Y263479D01*
X154974Y263493D01*
X154917Y263536D01*
X154861Y263592D01*
X154776Y263648D01*
X154677Y263733D01*
X154565Y263832D01*
X154452Y263944D01*
X154339Y264071D01*
X154212Y264198D01*
X153959Y264522D01*
X153719Y264903D01*
X153507Y265326D01*
Y265340D01*
X153479Y265382D01*
X153465Y265453D01*
X153423Y265537D01*
X153395Y265650D01*
X153352Y265791D01*
X153296Y265946D01*
X153254Y266115D01*
X153211Y266299D01*
X153155Y266510D01*
X153085Y266947D01*
X153028Y267441D01*
X153000Y267948D01*
Y267962D01*
Y268018D01*
Y268103D01*
X153014Y268202D01*
Y268343D01*
X153028Y268484D01*
X153042Y268667D01*
X153070Y268850D01*
X153141Y269259D01*
X153240Y269710D01*
X153381Y270161D01*
X153578Y270598D01*
X153592Y270612D01*
X153606Y270655D01*
X153634Y270711D01*
X153691Y270782D01*
X153747Y270880D01*
X153818Y270993D01*
X154001Y271247D01*
X154241Y271529D01*
X154522Y271811D01*
X154847Y272093D01*
X155227Y272332D01*
X155241Y272346D01*
X155284Y272360D01*
X155340Y272389D01*
X155411Y272431D01*
X155523Y272473D01*
X155636Y272516D01*
X155777Y272572D01*
X155932Y272628D01*
X156101Y272685D01*
X156285Y272741D01*
X156679Y272826D01*
X157130Y272896D01*
X157596Y272924D01*
X157737D01*
X157835Y272910D01*
D02*
G37*
G36*
X186082Y272783D02*
X186265Y272755D01*
X186491Y272713D01*
X186745Y272642D01*
X186998Y272558D01*
X187252Y272445D01*
X187266D01*
X187280Y272431D01*
X187365Y272389D01*
X187492Y272304D01*
X187633Y272205D01*
X187802Y272064D01*
X187971Y271909D01*
X188140Y271726D01*
X188281Y271515D01*
X188295Y271486D01*
X188337Y271416D01*
X188394Y271289D01*
X188464Y271134D01*
X188535Y270951D01*
X188591Y270739D01*
X188634Y270500D01*
X188648Y270260D01*
Y270232D01*
Y270147D01*
X188634Y270034D01*
X188605Y269879D01*
X188563Y269696D01*
X188493Y269499D01*
X188408Y269301D01*
X188295Y269104D01*
X188281Y269076D01*
X188239Y269019D01*
X188154Y268921D01*
X188041Y268808D01*
X187901Y268681D01*
X187731Y268540D01*
X187534Y268413D01*
X187294Y268286D01*
X187309D01*
X187337Y268272D01*
X187379Y268258D01*
X187435Y268244D01*
X187590Y268188D01*
X187788Y268103D01*
X188013Y267990D01*
X188239Y267849D01*
X188450Y267666D01*
X188648Y267455D01*
X188662Y267426D01*
X188718Y267342D01*
X188803Y267201D01*
X188887Y267018D01*
X188972Y266792D01*
X189056Y266524D01*
X189113Y266214D01*
X189127Y265876D01*
Y265862D01*
Y265819D01*
Y265749D01*
X189113Y265664D01*
X189099Y265552D01*
X189071Y265425D01*
X189042Y265284D01*
X189014Y265129D01*
X188901Y264790D01*
X188817Y264607D01*
X188732Y264438D01*
X188619Y264255D01*
X188493Y264071D01*
X188352Y263888D01*
X188183Y263719D01*
X188168Y263705D01*
X188140Y263677D01*
X188084Y263634D01*
X188013Y263578D01*
X187929Y263507D01*
X187816Y263437D01*
X187689Y263352D01*
X187534Y263282D01*
X187379Y263197D01*
X187196Y263113D01*
X187012Y263042D01*
X186801Y262972D01*
X186575Y262915D01*
X186336Y262873D01*
X186096Y262845D01*
X185828Y262831D01*
X185701D01*
X185617Y262845D01*
X185504Y262859D01*
X185377Y262873D01*
X185236Y262901D01*
X185081Y262929D01*
X184743Y263014D01*
X184390Y263155D01*
X184207Y263240D01*
X184038Y263338D01*
X183869Y263465D01*
X183700Y263592D01*
X183685Y263606D01*
X183657Y263634D01*
X183615Y263677D01*
X183573Y263733D01*
X183502Y263804D01*
X183432Y263902D01*
X183347Y264001D01*
X183263Y264128D01*
X183178Y264269D01*
X183093Y264410D01*
X182938Y264748D01*
X182812Y265143D01*
X182769Y265354D01*
X182741Y265580D01*
X183939Y265735D01*
Y265721D01*
X183953Y265693D01*
X183967Y265636D01*
X183982Y265566D01*
X183996Y265481D01*
X184024Y265382D01*
X184094Y265171D01*
X184193Y264917D01*
X184320Y264678D01*
X184461Y264452D01*
X184630Y264255D01*
X184658Y264240D01*
X184715Y264184D01*
X184827Y264114D01*
X184968Y264043D01*
X185138Y263959D01*
X185349Y263888D01*
X185589Y263832D01*
X185842Y263818D01*
X185927D01*
X185983Y263832D01*
X186138Y263846D01*
X186336Y263888D01*
X186561Y263959D01*
X186801Y264057D01*
X187041Y264198D01*
X187266Y264396D01*
X187294Y264424D01*
X187365Y264508D01*
X187449Y264635D01*
X187562Y264804D01*
X187675Y265016D01*
X187760Y265256D01*
X187830Y265537D01*
X187858Y265848D01*
Y265862D01*
Y265890D01*
Y265932D01*
X187844Y265989D01*
X187830Y266144D01*
X187788Y266327D01*
X187731Y266553D01*
X187633Y266778D01*
X187492Y267004D01*
X187309Y267215D01*
X187280Y267243D01*
X187210Y267300D01*
X187097Y267384D01*
X186942Y267483D01*
X186745Y267582D01*
X186505Y267666D01*
X186237Y267722D01*
X185941Y267751D01*
X185814D01*
X185716Y267737D01*
X185589Y267722D01*
X185448Y267694D01*
X185278Y267666D01*
X185095Y267624D01*
X185236Y268681D01*
X185307D01*
X185363Y268667D01*
X185546D01*
X185701Y268695D01*
X185885Y268723D01*
X186096Y268766D01*
X186336Y268836D01*
X186561Y268935D01*
X186801Y269062D01*
X186815D01*
X186829Y269076D01*
X186900Y269132D01*
X186998Y269231D01*
X187111Y269358D01*
X187224Y269541D01*
X187323Y269753D01*
X187393Y269992D01*
X187421Y270133D01*
Y270288D01*
Y270302D01*
Y270316D01*
Y270401D01*
X187393Y270514D01*
X187365Y270669D01*
X187309Y270838D01*
X187238Y271021D01*
X187125Y271204D01*
X186970Y271374D01*
X186956Y271388D01*
X186886Y271444D01*
X186787Y271515D01*
X186660Y271599D01*
X186491Y271670D01*
X186294Y271740D01*
X186068Y271796D01*
X185814Y271811D01*
X185701D01*
X185574Y271782D01*
X185405Y271754D01*
X185222Y271698D01*
X185039Y271627D01*
X184841Y271515D01*
X184658Y271374D01*
X184644Y271360D01*
X184588Y271289D01*
X184503Y271190D01*
X184405Y271049D01*
X184306Y270866D01*
X184207Y270641D01*
X184123Y270373D01*
X184066Y270063D01*
X182868Y270274D01*
Y270288D01*
X182882Y270330D01*
X182896Y270387D01*
X182910Y270471D01*
X182938Y270570D01*
X182981Y270683D01*
X183065Y270951D01*
X183206Y271261D01*
X183375Y271571D01*
X183587Y271867D01*
X183855Y272135D01*
X183869Y272149D01*
X183897Y272163D01*
X183939Y272191D01*
X183996Y272234D01*
X184066Y272290D01*
X184165Y272346D01*
X184263Y272403D01*
X184390Y272473D01*
X184672Y272586D01*
X184997Y272699D01*
X185377Y272769D01*
X185574Y272797D01*
X185927D01*
X186082Y272783D01*
D02*
G37*
G36*
X167238Y263000D02*
X166040D01*
Y270627D01*
X166026Y270612D01*
X165955Y270556D01*
X165871Y270471D01*
X165730Y270373D01*
X165574Y270246D01*
X165377Y270105D01*
X165152Y269950D01*
X164898Y269795D01*
X164884D01*
X164870Y269781D01*
X164785Y269724D01*
X164644Y269654D01*
X164475Y269569D01*
X164278Y269471D01*
X164066Y269372D01*
X163855Y269273D01*
X163643Y269189D01*
Y270345D01*
X163657D01*
X163685Y270373D01*
X163742Y270387D01*
X163812Y270429D01*
X163897Y270471D01*
X163996Y270528D01*
X164235Y270669D01*
X164517Y270824D01*
X164799Y271021D01*
X165095Y271247D01*
X165391Y271486D01*
X165405Y271500D01*
X165420Y271515D01*
X165462Y271557D01*
X165518Y271599D01*
X165645Y271740D01*
X165814Y271909D01*
X165983Y272107D01*
X166167Y272332D01*
X166322Y272558D01*
X166463Y272797D01*
X167238D01*
Y263000D01*
D02*
G37*
G36*
X234403Y145818D02*
X234580D01*
X234697Y145798D01*
X234815Y145779D01*
X234962Y145749D01*
X235246Y145661D01*
X235580Y145524D01*
X235737Y145445D01*
X235894Y145328D01*
X236051Y145210D01*
X236208Y145073D01*
X236227Y145053D01*
X236276Y145004D01*
X236345Y144916D01*
X236443Y144798D01*
X236541Y144661D01*
X236639Y144484D01*
X236747Y144298D01*
X236835Y144092D01*
X236845Y144063D01*
X236874Y143994D01*
X236914Y143876D01*
X236963Y143710D01*
X237002Y143513D01*
X237051Y143268D01*
X237080Y143004D01*
X237110Y142700D01*
Y142660D01*
X237120Y142552D01*
Y142454D01*
Y142356D01*
Y142239D01*
Y142082D01*
Y141925D01*
X237110Y141739D01*
Y141542D01*
X237100Y141317D01*
X237080Y141081D01*
X237070Y140817D01*
X237041Y140532D01*
X237021Y140238D01*
Y140219D01*
Y140179D01*
X237012Y140111D01*
X237002Y140022D01*
Y139905D01*
X236992Y139777D01*
X236963Y139493D01*
X236943Y139179D01*
X236933Y138875D01*
X236923Y138610D01*
X236914Y138502D01*
Y138404D01*
Y138385D01*
Y138326D01*
Y138247D01*
X236923Y138140D01*
X236943Y138022D01*
X236953Y137894D01*
X237002Y137610D01*
X240346Y140954D01*
X241150Y140150D01*
X236649Y135649D01*
X236639Y135659D01*
X236600Y135698D01*
X236541Y135757D01*
X236472Y135845D01*
X236394Y135943D01*
X236315Y136061D01*
X236237Y136178D01*
X236168Y136325D01*
X236158Y136335D01*
Y136355D01*
X236119Y136433D01*
X236070Y136561D01*
X236011Y136737D01*
X235952Y136953D01*
X235894Y137208D01*
X235845Y137473D01*
X235815Y137777D01*
X235805Y137787D01*
X235815Y137816D01*
X235805Y137924D01*
Y138100D01*
Y138355D01*
Y138650D01*
X235815Y139012D01*
X235845Y139434D01*
X235884Y139885D01*
Y139905D01*
X235894Y139973D01*
X235903Y140081D01*
X235913Y140209D01*
X235923Y140375D01*
X235943Y140572D01*
X235952Y140778D01*
X235972Y141013D01*
X235982Y141493D01*
X235992Y141974D01*
Y142209D01*
X235982Y142435D01*
X235972Y142641D01*
X235943Y142827D01*
X235933Y142837D01*
X235943Y142866D01*
X235933Y142915D01*
X235913Y142974D01*
X235874Y143151D01*
X235825Y143357D01*
X235737Y143582D01*
X235639Y143818D01*
X235492Y144043D01*
X235335Y144239D01*
X235325Y144249D01*
X235315Y144259D01*
X235246Y144308D01*
X235139Y144396D01*
X235001Y144475D01*
X234825Y144573D01*
X234619Y144641D01*
X234393Y144690D01*
X234138Y144710D01*
X234099D01*
X234011Y144700D01*
X233893Y144681D01*
X233717Y144641D01*
X233521Y144563D01*
X233305Y144465D01*
X233079Y144318D01*
X232864Y144122D01*
X232854Y144112D01*
X232834Y144092D01*
X232805Y144063D01*
X232775Y144014D01*
X232667Y143886D01*
X232560Y143720D01*
X232452Y143533D01*
X232353Y143298D01*
X232285Y143053D01*
X232255Y142788D01*
Y142749D01*
X232265Y142660D01*
X232285Y142523D01*
X232344Y142347D01*
X232412Y142141D01*
X232530Y141905D01*
X232687Y141670D01*
X232893Y141425D01*
X231952Y140660D01*
X231942Y140670D01*
X231922Y140709D01*
X231873Y140758D01*
X231814Y140836D01*
X231755Y140934D01*
X231687Y141042D01*
X231608Y141180D01*
X231530Y141317D01*
X231373Y141631D01*
X231255Y141984D01*
X231206Y142170D01*
X231177Y142376D01*
X231157Y142572D01*
Y142768D01*
Y142788D01*
X231167Y142817D01*
Y142876D01*
X231187Y142955D01*
X231206Y143053D01*
X231236Y143160D01*
X231265Y143288D01*
X231314Y143435D01*
X231373Y143592D01*
X231441Y143759D01*
X231530Y143925D01*
X231628Y144102D01*
X231745Y144278D01*
X231873Y144465D01*
X232030Y144641D01*
X232197Y144828D01*
X232206Y144837D01*
X232236Y144867D01*
X232295Y144926D01*
X232373Y144985D01*
X232461Y145053D01*
X232569Y145141D01*
X232697Y145230D01*
X232824Y145318D01*
X233148Y145504D01*
X233501Y145661D01*
X233687Y145730D01*
X233883Y145789D01*
X234089Y145818D01*
X234295Y145828D01*
X234315D01*
X234344Y145838D01*
X234403Y145818D01*
D02*
G37*
G36*
X229127Y140307D02*
X229284D01*
X229461Y140287D01*
X229657Y140248D01*
X229863Y140219D01*
X230069Y140169D01*
X230284Y140091D01*
X230510Y140022D01*
X230726Y139924D01*
X230961Y139807D01*
X230284Y138718D01*
X230275Y138728D01*
X230245Y138738D01*
X230186Y138757D01*
X230118Y138787D01*
X230039Y138826D01*
X229931Y138875D01*
X229696Y138954D01*
X229421Y139032D01*
X229127Y139091D01*
X228813Y139110D01*
X228509Y139101D01*
X228470D01*
X228372Y139081D01*
X228225Y139032D01*
X228029Y138973D01*
X227803Y138865D01*
X227558Y138738D01*
X227293Y138552D01*
X227038Y138316D01*
X227029Y138306D01*
X226999Y138277D01*
X226960Y138238D01*
X226921Y138179D01*
X226852Y138110D01*
X226784Y138022D01*
X226627Y137806D01*
X226460Y137561D01*
X226313Y137277D01*
X226185Y136953D01*
X226107Y136620D01*
X226097Y136610D01*
X226107Y136580D01*
X226087Y136463D01*
X226077Y136296D01*
X226087Y136070D01*
X226107Y135796D01*
X226156Y135512D01*
X226254Y135198D01*
X226381Y134874D01*
X226391Y134864D01*
X226401Y134835D01*
X226421Y134796D01*
X226460Y134737D01*
X226499Y134658D01*
X226548Y134570D01*
X226685Y134374D01*
X226842Y134139D01*
X227019Y133884D01*
X227235Y133629D01*
X227480Y133364D01*
X227489Y133354D01*
X227519Y133325D01*
X227568Y133276D01*
X227627Y133217D01*
X227705Y133158D01*
X227794Y133070D01*
X227901Y132981D01*
X228019Y132883D01*
X228284Y132677D01*
X228588Y132472D01*
X228902Y132275D01*
X229235Y132099D01*
X229245Y132089D01*
X229274Y132079D01*
X229323Y132069D01*
X229392Y132040D01*
X229569Y131981D01*
X229794Y131932D01*
X230059Y131883D01*
X230363Y131854D01*
X230667Y131863D01*
X230990Y131912D01*
X231000Y131922D01*
X231030Y131932D01*
X231079Y131942D01*
X231138Y131961D01*
X231206Y131991D01*
X231294Y132020D01*
X231491Y132099D01*
X231726Y132217D01*
X231971Y132364D01*
X232226Y132540D01*
X232461Y132756D01*
X232471Y132766D01*
X232491Y132785D01*
X232530Y132824D01*
X232579Y132893D01*
X232648Y132962D01*
X232707Y133040D01*
X232844Y133256D01*
X233001Y133511D01*
X233128Y133795D01*
X233236Y134119D01*
X233285Y134286D01*
X233305Y134462D01*
Y134482D01*
Y134501D01*
Y134560D01*
X233315Y134629D01*
X233305Y134717D01*
X233295Y134825D01*
Y134943D01*
X233265Y135070D01*
X233236Y135217D01*
X233207Y135384D01*
X233167Y135541D01*
X233109Y135717D01*
X233030Y135894D01*
X232942Y136080D01*
X232844Y136276D01*
X232726Y136473D01*
X233854Y137149D01*
X233864Y137139D01*
X233893Y137090D01*
X233932Y137012D01*
X233981Y136904D01*
X234040Y136786D01*
X234109Y136639D01*
X234177Y136473D01*
X234246Y136286D01*
X234384Y135874D01*
X234482Y135423D01*
X234511Y135178D01*
X234540Y134933D01*
Y134698D01*
X234521Y134443D01*
Y134423D01*
Y134384D01*
X234491Y134315D01*
X234482Y134227D01*
X234452Y134099D01*
X234423Y133972D01*
X234364Y133815D01*
X234305Y133658D01*
X234236Y133472D01*
X234148Y133285D01*
X234050Y133089D01*
X233942Y132883D01*
X233815Y132677D01*
X233658Y132481D01*
X233491Y132275D01*
X233305Y132069D01*
X233295Y132060D01*
X233256Y132020D01*
X233197Y131961D01*
X233109Y131893D01*
X233020Y131805D01*
X232903Y131707D01*
X232765Y131608D01*
X232609Y131491D01*
X232275Y131256D01*
X231903Y131040D01*
X231500Y130853D01*
X231294Y130785D01*
X231079Y130726D01*
X231059D01*
X231030Y130716D01*
X230961Y130706D01*
X230883D01*
X230784Y130687D01*
X230657Y130677D01*
X230510Y130667D01*
X230353D01*
X230186Y130677D01*
X230010D01*
X229608Y130726D01*
X229176Y130824D01*
X228735Y130971D01*
X228725Y130981D01*
X228676Y130991D01*
X228617Y131030D01*
X228529Y131059D01*
X228431Y131118D01*
X228304Y131187D01*
X228156Y131256D01*
X228009Y131344D01*
X227852Y131442D01*
X227666Y131550D01*
X227313Y131805D01*
X226931Y132109D01*
X226558Y132442D01*
X226548Y132452D01*
X226509Y132491D01*
X226450Y132550D01*
X226391Y132628D01*
X226293Y132726D01*
X226205Y132834D01*
X226087Y132972D01*
X225979Y133119D01*
X225744Y133452D01*
X225499Y133835D01*
X225283Y134246D01*
X225116Y134688D01*
Y134707D01*
X225097Y134747D01*
X225077Y134805D01*
X225067Y134894D01*
X225038Y135001D01*
X225009Y135129D01*
X224960Y135433D01*
X224930Y135796D01*
Y136188D01*
X224960Y136610D01*
X225058Y137041D01*
Y137061D01*
X225077Y137100D01*
X225097Y137159D01*
X225116Y137237D01*
X225165Y137345D01*
X225215Y137453D01*
X225273Y137590D01*
X225342Y137738D01*
X225420Y137894D01*
X225509Y138061D01*
X225724Y138395D01*
X225989Y138757D01*
X226293Y139101D01*
X226303Y139110D01*
X226342Y139150D01*
X226391Y139199D01*
X226470Y139257D01*
X226568Y139336D01*
X226685Y139434D01*
X226803Y139532D01*
X226960Y139630D01*
X227284Y139836D01*
X227666Y140042D01*
X227872Y140130D01*
X228078Y140199D01*
X228304Y140248D01*
X228529Y140297D01*
X228549D01*
X228578Y140307D01*
X228647Y140317D01*
X228980D01*
X229127Y140307D01*
D02*
G37*
G36*
X162888Y85741D02*
X163015D01*
X163311Y85727D01*
X163621Y85685D01*
X163959Y85642D01*
X164269Y85572D01*
X164424Y85530D01*
X164551Y85487D01*
X164566D01*
X164580Y85473D01*
X164664Y85431D01*
X164791Y85374D01*
X164946Y85276D01*
X165115Y85149D01*
X165299Y84980D01*
X165468Y84782D01*
X165637Y84557D01*
Y84543D01*
X165651Y84529D01*
X165707Y84444D01*
X165764Y84303D01*
X165848Y84120D01*
X165919Y83908D01*
X165989Y83655D01*
X166031Y83387D01*
X166046Y83091D01*
Y83077D01*
Y83048D01*
Y82992D01*
X166031Y82922D01*
Y82823D01*
X166017Y82724D01*
X165961Y82485D01*
X165877Y82203D01*
X165764Y81907D01*
X165595Y81611D01*
X165482Y81470D01*
X165369Y81329D01*
X165355Y81315D01*
X165341Y81300D01*
X165299Y81258D01*
X165242Y81216D01*
X165172Y81159D01*
X165087Y81103D01*
X164974Y81033D01*
X164862Y80948D01*
X164720Y80878D01*
X164566Y80807D01*
X164396Y80723D01*
X164213Y80652D01*
X164002Y80596D01*
X163790Y80525D01*
X163550Y80483D01*
X163297Y80441D01*
X163325Y80427D01*
X163381Y80398D01*
X163466Y80342D01*
X163579Y80286D01*
X163832Y80130D01*
X163959Y80032D01*
X164072Y79947D01*
X164100Y79919D01*
X164171Y79848D01*
X164284Y79736D01*
X164424Y79595D01*
X164580Y79397D01*
X164763Y79186D01*
X164946Y78932D01*
X165143Y78650D01*
X166821Y76000D01*
X165214D01*
X163931Y78030D01*
Y78044D01*
X163903Y78072D01*
X163875Y78115D01*
X163832Y78171D01*
X163734Y78326D01*
X163607Y78523D01*
X163452Y78735D01*
X163297Y78960D01*
X163142Y79172D01*
X163001Y79369D01*
X162987Y79383D01*
X162944Y79440D01*
X162874Y79524D01*
X162775Y79623D01*
X162564Y79834D01*
X162451Y79933D01*
X162338Y80018D01*
X162324Y80032D01*
X162296Y80046D01*
X162239Y80074D01*
X162155Y80116D01*
X162070Y80159D01*
X161972Y80201D01*
X161746Y80271D01*
X161732D01*
X161704Y80286D01*
X161647D01*
X161577Y80300D01*
X161478Y80314D01*
X161365D01*
X161210Y80328D01*
X159547D01*
Y76000D01*
X158250D01*
Y85755D01*
X162775D01*
X162888Y85741D01*
D02*
G37*
G36*
X170937Y85783D02*
X171121Y85755D01*
X171346Y85713D01*
X171600Y85642D01*
X171854Y85558D01*
X172107Y85445D01*
X172121D01*
X172136Y85431D01*
X172220Y85389D01*
X172347Y85304D01*
X172488Y85205D01*
X172657Y85064D01*
X172826Y84909D01*
X172995Y84726D01*
X173136Y84515D01*
X173151Y84486D01*
X173193Y84416D01*
X173249Y84289D01*
X173320Y84134D01*
X173390Y83951D01*
X173447Y83739D01*
X173489Y83500D01*
X173503Y83260D01*
Y83232D01*
Y83147D01*
X173489Y83034D01*
X173461Y82879D01*
X173418Y82696D01*
X173348Y82499D01*
X173263Y82301D01*
X173151Y82104D01*
X173136Y82076D01*
X173094Y82019D01*
X173010Y81921D01*
X172897Y81808D01*
X172756Y81681D01*
X172587Y81540D01*
X172389Y81413D01*
X172150Y81286D01*
X172164D01*
X172192Y81272D01*
X172234Y81258D01*
X172291Y81244D01*
X172446Y81188D01*
X172643Y81103D01*
X172869Y80990D01*
X173094Y80849D01*
X173306Y80666D01*
X173503Y80455D01*
X173517Y80427D01*
X173573Y80342D01*
X173658Y80201D01*
X173743Y80018D01*
X173827Y79792D01*
X173912Y79524D01*
X173968Y79214D01*
X173982Y78876D01*
Y78862D01*
Y78819D01*
Y78749D01*
X173968Y78664D01*
X173954Y78552D01*
X173926Y78425D01*
X173898Y78284D01*
X173869Y78129D01*
X173757Y77790D01*
X173672Y77607D01*
X173587Y77438D01*
X173475Y77255D01*
X173348Y77071D01*
X173207Y76888D01*
X173038Y76719D01*
X173024Y76705D01*
X172995Y76677D01*
X172939Y76634D01*
X172869Y76578D01*
X172784Y76508D01*
X172671Y76437D01*
X172544Y76352D01*
X172389Y76282D01*
X172234Y76197D01*
X172051Y76113D01*
X171868Y76042D01*
X171656Y75972D01*
X171431Y75915D01*
X171191Y75873D01*
X170951Y75845D01*
X170684Y75831D01*
X170557D01*
X170472Y75845D01*
X170359Y75859D01*
X170233Y75873D01*
X170091Y75901D01*
X169936Y75929D01*
X169598Y76014D01*
X169246Y76155D01*
X169062Y76240D01*
X168893Y76338D01*
X168724Y76465D01*
X168555Y76592D01*
X168541Y76606D01*
X168513Y76634D01*
X168470Y76677D01*
X168428Y76733D01*
X168358Y76803D01*
X168287Y76902D01*
X168202Y77001D01*
X168118Y77128D01*
X168033Y77269D01*
X167949Y77410D01*
X167794Y77748D01*
X167667Y78143D01*
X167624Y78354D01*
X167596Y78580D01*
X168795Y78735D01*
Y78721D01*
X168809Y78692D01*
X168823Y78636D01*
X168837Y78566D01*
X168851Y78481D01*
X168879Y78382D01*
X168950Y78171D01*
X169048Y77917D01*
X169175Y77677D01*
X169316Y77452D01*
X169485Y77255D01*
X169513Y77241D01*
X169570Y77184D01*
X169683Y77114D01*
X169824Y77043D01*
X169993Y76959D01*
X170204Y76888D01*
X170444Y76832D01*
X170698Y76818D01*
X170782D01*
X170839Y76832D01*
X170994Y76846D01*
X171191Y76888D01*
X171417Y76959D01*
X171656Y77057D01*
X171896Y77198D01*
X172121Y77396D01*
X172150Y77424D01*
X172220Y77508D01*
X172305Y77635D01*
X172418Y77804D01*
X172530Y78016D01*
X172615Y78256D01*
X172685Y78538D01*
X172714Y78848D01*
Y78862D01*
Y78890D01*
Y78932D01*
X172699Y78989D01*
X172685Y79144D01*
X172643Y79327D01*
X172587Y79552D01*
X172488Y79778D01*
X172347Y80003D01*
X172164Y80215D01*
X172136Y80243D01*
X172065Y80300D01*
X171952Y80384D01*
X171797Y80483D01*
X171600Y80582D01*
X171360Y80666D01*
X171092Y80723D01*
X170796Y80751D01*
X170669D01*
X170571Y80737D01*
X170444Y80723D01*
X170303Y80694D01*
X170134Y80666D01*
X169951Y80624D01*
X170091Y81681D01*
X170162D01*
X170218Y81667D01*
X170402D01*
X170557Y81695D01*
X170740Y81723D01*
X170951Y81766D01*
X171191Y81836D01*
X171417Y81935D01*
X171656Y82062D01*
X171670D01*
X171684Y82076D01*
X171755Y82132D01*
X171854Y82231D01*
X171966Y82358D01*
X172079Y82541D01*
X172178Y82753D01*
X172248Y82992D01*
X172276Y83133D01*
Y83288D01*
Y83302D01*
Y83316D01*
Y83401D01*
X172248Y83514D01*
X172220Y83669D01*
X172164Y83838D01*
X172093Y84021D01*
X171980Y84205D01*
X171825Y84374D01*
X171811Y84388D01*
X171741Y84444D01*
X171642Y84515D01*
X171515Y84599D01*
X171346Y84670D01*
X171149Y84740D01*
X170923Y84796D01*
X170669Y84811D01*
X170557D01*
X170430Y84782D01*
X170261Y84754D01*
X170077Y84698D01*
X169894Y84627D01*
X169697Y84515D01*
X169513Y84374D01*
X169499Y84360D01*
X169443Y84289D01*
X169358Y84190D01*
X169260Y84049D01*
X169161Y83866D01*
X169062Y83641D01*
X168978Y83373D01*
X168921Y83063D01*
X167723Y83274D01*
Y83288D01*
X167737Y83330D01*
X167751Y83387D01*
X167766Y83471D01*
X167794Y83570D01*
X167836Y83683D01*
X167920Y83951D01*
X168062Y84261D01*
X168231Y84571D01*
X168442Y84867D01*
X168710Y85135D01*
X168724Y85149D01*
X168752Y85163D01*
X168795Y85191D01*
X168851Y85233D01*
X168921Y85290D01*
X169020Y85346D01*
X169119Y85403D01*
X169246Y85473D01*
X169528Y85586D01*
X169852Y85699D01*
X170233Y85769D01*
X170430Y85797D01*
X170782D01*
X170937Y85783D01*
D02*
G37*
G36*
X18835Y119910D02*
X18962Y119896D01*
X19117Y119882D01*
X19272Y119868D01*
X19455Y119826D01*
X19836Y119741D01*
X20259Y119614D01*
X20470Y119530D01*
X20668Y119431D01*
X20865Y119304D01*
X21063Y119177D01*
X21077Y119163D01*
X21105Y119149D01*
X21161Y119107D01*
X21232Y119036D01*
X21302Y118966D01*
X21401Y118867D01*
X21500Y118754D01*
X21612Y118642D01*
X21725Y118500D01*
X21838Y118331D01*
X21965Y118162D01*
X22078Y117979D01*
X22176Y117767D01*
X22289Y117556D01*
X22374Y117330D01*
X22458Y117077D01*
X21189Y116781D01*
Y116795D01*
X21175Y116823D01*
X21147Y116879D01*
X21119Y116950D01*
X21091Y117034D01*
X21049Y117147D01*
X20936Y117373D01*
X20795Y117626D01*
X20626Y117880D01*
X20414Y118120D01*
X20189Y118331D01*
X20160Y118359D01*
X20076Y118416D01*
X19935Y118486D01*
X19752Y118585D01*
X19512Y118670D01*
X19244Y118754D01*
X18920Y118811D01*
X18567Y118825D01*
X18455D01*
X18384Y118811D01*
X18285D01*
X18173Y118797D01*
X17905Y118754D01*
X17609Y118698D01*
X17299Y118599D01*
X16975Y118458D01*
X16678Y118275D01*
X16664D01*
X16650Y118247D01*
X16552Y118176D01*
X16425Y118063D01*
X16270Y117894D01*
X16086Y117683D01*
X15917Y117443D01*
X15762Y117147D01*
X15621Y116823D01*
Y116809D01*
X15607Y116781D01*
X15593Y116738D01*
X15579Y116668D01*
X15551Y116583D01*
X15523Y116485D01*
X15480Y116245D01*
X15424Y115963D01*
X15367Y115653D01*
X15339Y115315D01*
X15325Y114948D01*
Y114934D01*
Y114892D01*
Y114821D01*
Y114737D01*
X15339Y114638D01*
Y114511D01*
X15353Y114370D01*
X15367Y114215D01*
X15410Y113877D01*
X15480Y113510D01*
X15565Y113144D01*
X15677Y112777D01*
Y112763D01*
X15692Y112735D01*
X15720Y112692D01*
X15748Y112622D01*
X15833Y112453D01*
X15960Y112255D01*
X16114Y112030D01*
X16312Y111790D01*
X16537Y111579D01*
X16805Y111382D01*
X16819D01*
X16848Y111367D01*
X16890Y111339D01*
X16946Y111311D01*
X17017Y111283D01*
X17101Y111241D01*
X17299Y111156D01*
X17552Y111071D01*
X17834Y111001D01*
X18145Y110944D01*
X18469Y110930D01*
X18567D01*
X18652Y110944D01*
X18751D01*
X18849Y110959D01*
X19103Y111015D01*
X19399Y111086D01*
X19695Y111198D01*
X20005Y111353D01*
X20160Y111438D01*
X20301Y111551D01*
X20315Y111565D01*
X20330Y111579D01*
X20372Y111621D01*
X20428Y111664D01*
X20485Y111734D01*
X20555Y111819D01*
X20640Y111903D01*
X20710Y112016D01*
X20795Y112143D01*
X20893Y112284D01*
X20978Y112425D01*
X21063Y112594D01*
X21133Y112777D01*
X21204Y112975D01*
X21274Y113186D01*
X21330Y113412D01*
X22627Y113087D01*
Y113073D01*
X22613Y113017D01*
X22585Y112932D01*
X22543Y112819D01*
X22501Y112692D01*
X22444Y112537D01*
X22374Y112368D01*
X22289Y112185D01*
X22092Y111790D01*
X21838Y111396D01*
X21683Y111198D01*
X21528Y111001D01*
X21359Y110832D01*
X21161Y110663D01*
X21147Y110648D01*
X21119Y110620D01*
X21049Y110592D01*
X20978Y110536D01*
X20865Y110465D01*
X20752Y110395D01*
X20597Y110324D01*
X20442Y110254D01*
X20259Y110169D01*
X20062Y110099D01*
X19850Y110028D01*
X19625Y109958D01*
X19385Y109901D01*
X19131Y109873D01*
X18864Y109845D01*
X18582Y109831D01*
X18427D01*
X18314Y109845D01*
X18187D01*
X18032Y109859D01*
X17863Y109887D01*
X17665Y109915D01*
X17256Y109986D01*
X16833Y110099D01*
X16411Y110254D01*
X16213Y110352D01*
X16016Y110465D01*
X16002Y110479D01*
X15974Y110493D01*
X15917Y110536D01*
X15861Y110592D01*
X15776Y110648D01*
X15677Y110733D01*
X15565Y110832D01*
X15452Y110944D01*
X15339Y111071D01*
X15212Y111198D01*
X14959Y111523D01*
X14719Y111903D01*
X14507Y112326D01*
Y112340D01*
X14479Y112382D01*
X14465Y112453D01*
X14423Y112537D01*
X14395Y112650D01*
X14352Y112791D01*
X14296Y112946D01*
X14254Y113115D01*
X14211Y113299D01*
X14155Y113510D01*
X14085Y113947D01*
X14028Y114441D01*
X14000Y114948D01*
Y114962D01*
Y115019D01*
Y115103D01*
X14014Y115202D01*
Y115343D01*
X14028Y115484D01*
X14042Y115667D01*
X14071Y115850D01*
X14141Y116259D01*
X14240Y116710D01*
X14381Y117161D01*
X14578Y117598D01*
X14592Y117612D01*
X14606Y117655D01*
X14634Y117711D01*
X14691Y117782D01*
X14747Y117880D01*
X14818Y117993D01*
X15001Y118247D01*
X15240Y118529D01*
X15523Y118811D01*
X15847Y119093D01*
X16227Y119332D01*
X16241Y119346D01*
X16284Y119360D01*
X16340Y119389D01*
X16411Y119431D01*
X16523Y119473D01*
X16636Y119515D01*
X16777Y119572D01*
X16932Y119628D01*
X17101Y119685D01*
X17285Y119741D01*
X17679Y119826D01*
X18130Y119896D01*
X18596Y119924D01*
X18737D01*
X18835Y119910D01*
D02*
G37*
G36*
X177835Y272910D02*
X177962Y272896D01*
X178117Y272882D01*
X178272Y272868D01*
X178456Y272826D01*
X178836Y272741D01*
X179259Y272614D01*
X179471Y272530D01*
X179668Y272431D01*
X179865Y272304D01*
X180063Y272177D01*
X180077Y272163D01*
X180105Y272149D01*
X180161Y272107D01*
X180232Y272036D01*
X180302Y271966D01*
X180401Y271867D01*
X180500Y271754D01*
X180612Y271642D01*
X180725Y271500D01*
X180838Y271331D01*
X180965Y271162D01*
X181078Y270979D01*
X181176Y270767D01*
X181289Y270556D01*
X181374Y270330D01*
X181458Y270077D01*
X180189Y269781D01*
Y269795D01*
X180175Y269823D01*
X180147Y269879D01*
X180119Y269950D01*
X180091Y270034D01*
X180049Y270147D01*
X179936Y270373D01*
X179795Y270627D01*
X179626Y270880D01*
X179414Y271120D01*
X179189Y271331D01*
X179160Y271360D01*
X179076Y271416D01*
X178935Y271486D01*
X178752Y271585D01*
X178512Y271670D01*
X178244Y271754D01*
X177920Y271811D01*
X177567Y271825D01*
X177455D01*
X177384Y271811D01*
X177285D01*
X177173Y271796D01*
X176905Y271754D01*
X176609Y271698D01*
X176299Y271599D01*
X175975Y271458D01*
X175678Y271275D01*
X175664D01*
X175650Y271247D01*
X175552Y271176D01*
X175425Y271063D01*
X175270Y270894D01*
X175086Y270683D01*
X174917Y270443D01*
X174762Y270147D01*
X174621Y269823D01*
Y269809D01*
X174607Y269781D01*
X174593Y269738D01*
X174579Y269668D01*
X174551Y269583D01*
X174522Y269485D01*
X174480Y269245D01*
X174424Y268963D01*
X174367Y268653D01*
X174339Y268315D01*
X174325Y267948D01*
Y267934D01*
Y267892D01*
Y267821D01*
Y267737D01*
X174339Y267638D01*
Y267511D01*
X174353Y267370D01*
X174367Y267215D01*
X174410Y266877D01*
X174480Y266510D01*
X174565Y266144D01*
X174678Y265777D01*
Y265763D01*
X174692Y265735D01*
X174720Y265693D01*
X174748Y265622D01*
X174833Y265453D01*
X174960Y265256D01*
X175115Y265030D01*
X175312Y264790D01*
X175537Y264579D01*
X175805Y264382D01*
X175819D01*
X175848Y264367D01*
X175890Y264339D01*
X175946Y264311D01*
X176017Y264283D01*
X176101Y264240D01*
X176299Y264156D01*
X176553Y264071D01*
X176834Y264001D01*
X177145Y263944D01*
X177469Y263930D01*
X177567D01*
X177652Y263944D01*
X177751D01*
X177849Y263959D01*
X178103Y264015D01*
X178399Y264086D01*
X178695Y264198D01*
X179005Y264353D01*
X179160Y264438D01*
X179301Y264551D01*
X179315Y264565D01*
X179330Y264579D01*
X179372Y264621D01*
X179428Y264664D01*
X179485Y264734D01*
X179555Y264818D01*
X179640Y264903D01*
X179710Y265016D01*
X179795Y265143D01*
X179893Y265284D01*
X179978Y265425D01*
X180063Y265594D01*
X180133Y265777D01*
X180204Y265975D01*
X180274Y266186D01*
X180330Y266411D01*
X181627Y266087D01*
Y266073D01*
X181613Y266017D01*
X181585Y265932D01*
X181543Y265819D01*
X181500Y265693D01*
X181444Y265537D01*
X181374Y265368D01*
X181289Y265185D01*
X181092Y264790D01*
X180838Y264396D01*
X180683Y264198D01*
X180528Y264001D01*
X180359Y263832D01*
X180161Y263663D01*
X180147Y263648D01*
X180119Y263620D01*
X180049Y263592D01*
X179978Y263536D01*
X179865Y263465D01*
X179753Y263395D01*
X179597Y263324D01*
X179442Y263254D01*
X179259Y263169D01*
X179062Y263099D01*
X178850Y263028D01*
X178625Y262958D01*
X178385Y262901D01*
X178131Y262873D01*
X177864Y262845D01*
X177582Y262831D01*
X177426D01*
X177314Y262845D01*
X177187D01*
X177032Y262859D01*
X176863Y262887D01*
X176665Y262915D01*
X176256Y262986D01*
X175833Y263099D01*
X175411Y263254D01*
X175213Y263352D01*
X175016Y263465D01*
X175002Y263479D01*
X174974Y263493D01*
X174917Y263536D01*
X174861Y263592D01*
X174776Y263648D01*
X174678Y263733D01*
X174565Y263832D01*
X174452Y263944D01*
X174339Y264071D01*
X174212Y264198D01*
X173959Y264522D01*
X173719Y264903D01*
X173507Y265326D01*
Y265340D01*
X173479Y265382D01*
X173465Y265453D01*
X173423Y265537D01*
X173395Y265650D01*
X173352Y265791D01*
X173296Y265946D01*
X173254Y266115D01*
X173211Y266299D01*
X173155Y266510D01*
X173085Y266947D01*
X173028Y267441D01*
X173000Y267948D01*
Y267962D01*
Y268018D01*
Y268103D01*
X173014Y268202D01*
Y268343D01*
X173028Y268484D01*
X173042Y268667D01*
X173071Y268850D01*
X173141Y269259D01*
X173240Y269710D01*
X173381Y270161D01*
X173578Y270598D01*
X173592Y270612D01*
X173606Y270655D01*
X173634Y270711D01*
X173691Y270782D01*
X173747Y270880D01*
X173818Y270993D01*
X174001Y271247D01*
X174240Y271529D01*
X174522Y271811D01*
X174847Y272093D01*
X175227Y272332D01*
X175241Y272346D01*
X175284Y272360D01*
X175340Y272389D01*
X175411Y272431D01*
X175523Y272473D01*
X175636Y272516D01*
X175777Y272572D01*
X175932Y272628D01*
X176101Y272685D01*
X176285Y272741D01*
X176679Y272826D01*
X177130Y272896D01*
X177596Y272924D01*
X177737D01*
X177835Y272910D01*
D02*
G37*
G36*
X28760Y113440D02*
X30085D01*
Y112340D01*
X28760D01*
Y110000D01*
X27561D01*
Y112340D01*
X23318D01*
Y113440D01*
X27787Y119755D01*
X28760D01*
Y113440D01*
D02*
G37*
G36*
X190912Y59130D02*
X191186Y59091D01*
X191196Y59081D01*
X191215D01*
X191313Y59062D01*
X191451Y59003D01*
X191637Y58934D01*
X191833Y58836D01*
X192059Y58709D01*
X192275Y58552D01*
X192490Y58356D01*
X192500Y58346D01*
X192520Y58326D01*
X192559Y58287D01*
X192598Y58228D01*
X192667Y58159D01*
X192726Y58081D01*
X192853Y57875D01*
X192990Y57620D01*
X193118Y57336D01*
X193206Y57012D01*
X193226Y56836D01*
X193245Y56659D01*
Y56639D01*
Y56620D01*
Y56561D01*
X193236Y56492D01*
X193226Y56404D01*
X193206Y56306D01*
X193177Y56179D01*
X193157Y56041D01*
X193108Y55894D01*
X193049Y55737D01*
X192990Y55561D01*
X192912Y55384D01*
X192804Y55198D01*
X192706Y55002D01*
X192569Y54806D01*
X192422Y54600D01*
X192451Y54609D01*
X192510Y54629D01*
X192608Y54649D01*
X192726Y54688D01*
X193010Y54757D01*
X193167Y54776D01*
X193304Y54796D01*
X193795D01*
X194040Y54766D01*
X194314Y54747D01*
X194618Y54698D01*
X194952Y54639D01*
X197962Y53962D01*
X196844Y52844D01*
X194540Y53364D01*
X194530Y53374D01*
X194491D01*
X194442Y53384D01*
X194373Y53394D01*
X194197Y53433D01*
X193971Y53482D01*
X193716Y53521D01*
X193451Y53570D01*
X193196Y53609D01*
X192961Y53649D01*
X192941D01*
X192873Y53658D01*
X192765Y53668D01*
X192333D01*
X192186Y53658D01*
X192049Y53639D01*
X192029D01*
X192000Y53629D01*
X191941Y53609D01*
X191853Y53580D01*
X191765Y53550D01*
X191667Y53511D01*
X191461Y53403D01*
X191451Y53394D01*
X191421Y53384D01*
X191382Y53344D01*
X191323Y53305D01*
X191245Y53246D01*
X191166Y53168D01*
X191049Y53070D01*
X190931Y52952D01*
X189892Y51913D01*
X192902Y48902D01*
X192000Y48000D01*
X185214Y54786D01*
X188215Y57787D01*
X188225Y57797D01*
X188254Y57826D01*
X188303Y57875D01*
X188362Y57934D01*
X188450Y58003D01*
X188538Y58091D01*
X188754Y58287D01*
X188999Y58473D01*
X189264Y58679D01*
X189529Y58846D01*
X189666Y58924D01*
X189784Y58983D01*
X189793Y58993D01*
X189813D01*
X189901Y59022D01*
X190029Y59071D01*
X190205Y59111D01*
X190411Y59140D01*
X190657Y59150D01*
X190912Y59130D01*
D02*
G37*
G36*
X105592Y90625D02*
X105703Y90611D01*
X105842Y90597D01*
X105995Y90569D01*
X106147Y90541D01*
X106508Y90444D01*
X106868Y90306D01*
X107049Y90223D01*
X107229Y90125D01*
X107395Y90001D01*
X107548Y89862D01*
X107562Y89848D01*
X107590Y89834D01*
X107617Y89779D01*
X107673Y89723D01*
X107742Y89654D01*
X107811Y89557D01*
X107881Y89460D01*
X107964Y89335D01*
X108103Y89071D01*
X108241Y88739D01*
X108297Y88572D01*
X108325Y88378D01*
X108352Y88184D01*
X108366Y87976D01*
Y87948D01*
Y87879D01*
X108352Y87768D01*
X108338Y87615D01*
X108311Y87449D01*
X108255Y87255D01*
X108200Y87047D01*
X108117Y86839D01*
X108103Y86811D01*
X108075Y86742D01*
X108020Y86631D01*
X107936Y86478D01*
X107825Y86312D01*
X107687Y86104D01*
X107520Y85896D01*
X107326Y85660D01*
X107298Y85632D01*
X107229Y85549D01*
X107160Y85479D01*
X107090Y85410D01*
X107007Y85327D01*
X106896Y85216D01*
X106785Y85105D01*
X106646Y84980D01*
X106508Y84842D01*
X106341Y84689D01*
X106161Y84537D01*
X105967Y84356D01*
X105745Y84176D01*
X105523Y83982D01*
X105509Y83968D01*
X105482Y83940D01*
X105426Y83898D01*
X105357Y83843D01*
X105274Y83760D01*
X105176Y83677D01*
X104955Y83496D01*
X104719Y83288D01*
X104497Y83080D01*
X104303Y82900D01*
X104220Y82831D01*
X104150Y82761D01*
X104136Y82747D01*
X104095Y82706D01*
X104039Y82650D01*
X103970Y82567D01*
X103901Y82470D01*
X103817Y82373D01*
X103651Y82137D01*
X108380D01*
Y81000D01*
X102015D01*
Y81014D01*
Y81069D01*
Y81153D01*
X102028Y81264D01*
X102042Y81388D01*
X102070Y81527D01*
X102098Y81666D01*
X102153Y81818D01*
Y81832D01*
X102167Y81846D01*
X102195Y81929D01*
X102250Y82054D01*
X102333Y82220D01*
X102444Y82415D01*
X102583Y82636D01*
X102736Y82858D01*
X102930Y83094D01*
Y83108D01*
X102957Y83122D01*
X103027Y83205D01*
X103152Y83330D01*
X103332Y83510D01*
X103540Y83718D01*
X103804Y83968D01*
X104122Y84245D01*
X104469Y84537D01*
X104483Y84550D01*
X104538Y84592D01*
X104622Y84661D01*
X104719Y84745D01*
X104844Y84855D01*
X104996Y84980D01*
X105149Y85119D01*
X105329Y85272D01*
X105676Y85604D01*
X106022Y85937D01*
X106189Y86104D01*
X106341Y86270D01*
X106480Y86423D01*
X106591Y86575D01*
Y86589D01*
X106619Y86603D01*
X106646Y86644D01*
X106674Y86700D01*
X106771Y86853D01*
X106882Y87033D01*
X106979Y87255D01*
X107076Y87490D01*
X107132Y87754D01*
X107160Y88004D01*
Y88017D01*
Y88031D01*
X107146Y88115D01*
X107132Y88253D01*
X107090Y88406D01*
X107035Y88600D01*
X106938Y88794D01*
X106813Y88988D01*
X106646Y89182D01*
X106619Y89210D01*
X106549Y89266D01*
X106452Y89335D01*
X106300Y89432D01*
X106106Y89515D01*
X105884Y89598D01*
X105620Y89654D01*
X105329Y89668D01*
X105246D01*
X105190Y89654D01*
X105024Y89640D01*
X104830Y89598D01*
X104622Y89543D01*
X104386Y89446D01*
X104164Y89321D01*
X103956Y89155D01*
X103928Y89127D01*
X103873Y89058D01*
X103790Y88947D01*
X103706Y88780D01*
X103609Y88586D01*
X103526Y88336D01*
X103471Y88059D01*
X103443Y87740D01*
X102236Y87865D01*
Y87879D01*
X102250Y87920D01*
Y87990D01*
X102264Y88087D01*
X102292Y88198D01*
X102320Y88322D01*
X102361Y88475D01*
X102403Y88628D01*
X102514Y88961D01*
X102680Y89293D01*
X102777Y89460D01*
X102902Y89626D01*
X103027Y89779D01*
X103166Y89917D01*
X103179Y89931D01*
X103207Y89945D01*
X103249Y89987D01*
X103318Y90028D01*
X103401Y90084D01*
X103498Y90139D01*
X103609Y90209D01*
X103748Y90278D01*
X103901Y90347D01*
X104067Y90417D01*
X104247Y90472D01*
X104441Y90528D01*
X104649Y90569D01*
X104871Y90611D01*
X105107Y90625D01*
X105357Y90639D01*
X105495D01*
X105592Y90625D01*
D02*
G37*
G36*
X97563Y90583D02*
X97688D01*
X97979Y90569D01*
X98284Y90528D01*
X98617Y90486D01*
X98922Y90417D01*
X99074Y90375D01*
X99199Y90333D01*
X99213D01*
X99227Y90320D01*
X99310Y90278D01*
X99435Y90223D01*
X99587Y90125D01*
X99754Y90001D01*
X99934Y89834D01*
X100101Y89640D01*
X100267Y89418D01*
Y89404D01*
X100281Y89390D01*
X100336Y89307D01*
X100392Y89169D01*
X100475Y88988D01*
X100544Y88780D01*
X100614Y88531D01*
X100655Y88267D01*
X100669Y87976D01*
Y87962D01*
Y87934D01*
Y87879D01*
X100655Y87809D01*
Y87712D01*
X100641Y87615D01*
X100586Y87380D01*
X100503Y87102D01*
X100392Y86811D01*
X100225Y86520D01*
X100114Y86381D01*
X100004Y86242D01*
X99990Y86228D01*
X99976Y86215D01*
X99934Y86173D01*
X99879Y86131D01*
X99809Y86076D01*
X99726Y86020D01*
X99615Y85951D01*
X99504Y85868D01*
X99366Y85799D01*
X99213Y85729D01*
X99047Y85646D01*
X98866Y85577D01*
X98658Y85521D01*
X98450Y85452D01*
X98215Y85410D01*
X97965Y85369D01*
X97993Y85355D01*
X98048Y85327D01*
X98131Y85272D01*
X98242Y85216D01*
X98492Y85063D01*
X98617Y84966D01*
X98728Y84883D01*
X98755Y84855D01*
X98825Y84786D01*
X98936Y84675D01*
X99074Y84537D01*
X99227Y84342D01*
X99407Y84134D01*
X99587Y83885D01*
X99782Y83607D01*
X101432Y81000D01*
X99851D01*
X98589Y82997D01*
Y83011D01*
X98561Y83039D01*
X98533Y83080D01*
X98492Y83136D01*
X98395Y83288D01*
X98270Y83483D01*
X98118Y83691D01*
X97965Y83912D01*
X97812Y84120D01*
X97674Y84315D01*
X97660Y84328D01*
X97618Y84384D01*
X97549Y84467D01*
X97452Y84564D01*
X97244Y84772D01*
X97133Y84869D01*
X97022Y84952D01*
X97008Y84966D01*
X96980Y84980D01*
X96925Y85008D01*
X96842Y85050D01*
X96758Y85091D01*
X96661Y85133D01*
X96439Y85202D01*
X96426D01*
X96398Y85216D01*
X96342D01*
X96273Y85230D01*
X96176Y85244D01*
X96065D01*
X95912Y85258D01*
X94276D01*
Y81000D01*
X93000D01*
Y90597D01*
X97452D01*
X97563Y90583D01*
D02*
G37*
G36*
X199600Y60385D02*
X200522Y61307D01*
X201287Y60542D01*
X200365Y59621D01*
X201993Y57993D01*
X201159Y57159D01*
X199531Y58787D01*
X196580Y55835D01*
X195815Y56600D01*
X194530Y64102D01*
X195207Y64779D01*
X199600Y60385D01*
D02*
G37*
%LPC*%
G36*
X28299Y82529D02*
X25276D01*
Y79353D01*
X28133D01*
X28299Y79367D01*
X28493Y79381D01*
X28715Y79395D01*
X28937Y79422D01*
X29159Y79464D01*
X29353Y79520D01*
X29381Y79534D01*
X29436Y79561D01*
X29520Y79603D01*
X29631Y79658D01*
X29755Y79742D01*
X29880Y79839D01*
X30005Y79963D01*
X30102Y80102D01*
X30116Y80116D01*
X30144Y80171D01*
X30185Y80255D01*
X30241Y80366D01*
X30282Y80490D01*
X30324Y80629D01*
X30352Y80795D01*
X30366Y80962D01*
Y80976D01*
Y80990D01*
X30352Y81073D01*
X30338Y81198D01*
X30310Y81364D01*
X30241Y81531D01*
X30158Y81725D01*
X30033Y81905D01*
X29866Y82085D01*
X29839Y82099D01*
X29769Y82155D01*
X29658Y82224D01*
X29478Y82307D01*
X29270Y82390D01*
X28993Y82460D01*
X28674Y82515D01*
X28299Y82529D01*
D02*
G37*
G36*
X188990Y102558D02*
X186771D01*
Y95236D01*
X189045D01*
X189142Y95250D01*
X189350Y95264D01*
X189586Y95278D01*
X189836Y95305D01*
X190085Y95347D01*
X190293Y95402D01*
X190321Y95416D01*
X190390Y95430D01*
X190487Y95472D01*
X190612Y95527D01*
X190751Y95610D01*
X190890Y95694D01*
X191028Y95791D01*
X191167Y95902D01*
X191181Y95929D01*
X191236Y95985D01*
X191320Y96082D01*
X191417Y96221D01*
X191528Y96401D01*
X191652Y96609D01*
X191763Y96845D01*
X191861Y97108D01*
Y97122D01*
X191874Y97150D01*
X191888Y97191D01*
X191902Y97247D01*
X191916Y97316D01*
X191944Y97413D01*
X191971Y97510D01*
X191999Y97621D01*
X192041Y97899D01*
X192082Y98218D01*
X192110Y98578D01*
X192124Y98967D01*
Y98980D01*
Y99036D01*
Y99105D01*
X192110Y99216D01*
Y99341D01*
X192096Y99480D01*
X192082Y99646D01*
X192069Y99813D01*
X191999Y100187D01*
X191916Y100575D01*
X191791Y100936D01*
X191708Y101116D01*
X191625Y101269D01*
Y101283D01*
X191597Y101310D01*
X191569Y101352D01*
X191542Y101407D01*
X191431Y101546D01*
X191292Y101713D01*
X191112Y101893D01*
X190904Y102073D01*
X190668Y102226D01*
X190418Y102351D01*
X190390Y102364D01*
X190321Y102378D01*
X190196Y102420D01*
X190016Y102461D01*
X189794Y102489D01*
X189517Y102531D01*
X189350Y102545D01*
X189170D01*
X188990Y102558D01*
D02*
G37*
G36*
X198670D02*
X196451D01*
Y95236D01*
X198725D01*
X198822Y95250D01*
X199030Y95264D01*
X199266Y95278D01*
X199516Y95305D01*
X199765Y95347D01*
X199974Y95402D01*
X200001Y95416D01*
X200071Y95430D01*
X200168Y95472D01*
X200292Y95527D01*
X200431Y95610D01*
X200570Y95694D01*
X200709Y95791D01*
X200847Y95902D01*
X200861Y95929D01*
X200917Y95985D01*
X201000Y96082D01*
X201097Y96221D01*
X201208Y96401D01*
X201333Y96609D01*
X201444Y96845D01*
X201541Y97108D01*
Y97122D01*
X201555Y97150D01*
X201568Y97191D01*
X201582Y97247D01*
X201596Y97316D01*
X201624Y97413D01*
X201652Y97510D01*
X201679Y97621D01*
X201721Y97899D01*
X201763Y98218D01*
X201790Y98578D01*
X201804Y98967D01*
Y98980D01*
Y99036D01*
Y99105D01*
X201790Y99216D01*
Y99341D01*
X201776Y99480D01*
X201763Y99646D01*
X201749Y99813D01*
X201679Y100187D01*
X201596Y100575D01*
X201471Y100936D01*
X201388Y101116D01*
X201305Y101269D01*
Y101283D01*
X201277Y101310D01*
X201249Y101352D01*
X201222Y101407D01*
X201111Y101546D01*
X200972Y101713D01*
X200792Y101893D01*
X200584Y102073D01*
X200348Y102226D01*
X200098Y102351D01*
X200071Y102364D01*
X200001Y102378D01*
X199876Y102420D01*
X199696Y102461D01*
X199474Y102489D01*
X199197Y102531D01*
X199030Y102545D01*
X198850D01*
X198670Y102558D01*
D02*
G37*
G36*
X189299Y290529D02*
X186276D01*
Y287353D01*
X189133D01*
X189299Y287367D01*
X189493Y287381D01*
X189715Y287395D01*
X189937Y287423D01*
X190159Y287464D01*
X190353Y287520D01*
X190381Y287533D01*
X190436Y287561D01*
X190520Y287603D01*
X190631Y287658D01*
X190755Y287742D01*
X190880Y287839D01*
X191005Y287963D01*
X191102Y288102D01*
X191116Y288116D01*
X191144Y288171D01*
X191185Y288255D01*
X191241Y288366D01*
X191282Y288490D01*
X191324Y288629D01*
X191352Y288796D01*
X191366Y288962D01*
Y288976D01*
Y288990D01*
X191352Y289073D01*
X191338Y289198D01*
X191310Y289364D01*
X191241Y289531D01*
X191158Y289725D01*
X191033Y289905D01*
X190866Y290085D01*
X190839Y290099D01*
X190769Y290155D01*
X190658Y290224D01*
X190478Y290307D01*
X190270Y290390D01*
X189993Y290460D01*
X189674Y290515D01*
X189299Y290529D01*
D02*
G37*
G36*
X43299Y217529D02*
X40276D01*
Y214353D01*
X43133D01*
X43299Y214367D01*
X43493Y214381D01*
X43715Y214395D01*
X43937Y214423D01*
X44159Y214464D01*
X44353Y214520D01*
X44381Y214534D01*
X44436Y214561D01*
X44520Y214603D01*
X44631Y214658D01*
X44755Y214741D01*
X44880Y214839D01*
X45005Y214963D01*
X45102Y215102D01*
X45116Y215116D01*
X45144Y215172D01*
X45185Y215255D01*
X45241Y215366D01*
X45282Y215490D01*
X45324Y215629D01*
X45352Y215795D01*
X45366Y215962D01*
Y215976D01*
Y215990D01*
X45352Y216073D01*
X45338Y216198D01*
X45310Y216364D01*
X45241Y216531D01*
X45158Y216725D01*
X45033Y216905D01*
X44866Y217085D01*
X44839Y217099D01*
X44769Y217155D01*
X44658Y217224D01*
X44478Y217307D01*
X44270Y217390D01*
X43993Y217460D01*
X43674Y217515D01*
X43299Y217529D01*
D02*
G37*
G36*
X51398Y214187D02*
X51315D01*
X51260Y214173D01*
X51121Y214159D01*
X50927Y214118D01*
X50719Y214048D01*
X50483Y213937D01*
X50261Y213799D01*
X50039Y213604D01*
X50012Y213577D01*
X49956Y213507D01*
X49859Y213382D01*
X49762Y213202D01*
X49665Y212994D01*
X49568Y212731D01*
X49512Y212439D01*
X49485Y212106D01*
Y212079D01*
Y212010D01*
X49498Y211885D01*
X49512Y211732D01*
X49540Y211552D01*
X49595Y211358D01*
X49651Y211150D01*
X49734Y210942D01*
X49748Y210914D01*
X49790Y210844D01*
X49845Y210747D01*
X49928Y210623D01*
X50025Y210498D01*
X50150Y210345D01*
X50289Y210220D01*
X50455Y210096D01*
X50483Y210082D01*
X50539Y210054D01*
X50636Y209998D01*
X50760Y209957D01*
X50899Y209902D01*
X51066Y209846D01*
X51246Y209818D01*
X51440Y209804D01*
X51509D01*
X51565Y209818D01*
X51704Y209832D01*
X51884Y209874D01*
X52078Y209957D01*
X52300Y210054D01*
X52522Y210207D01*
X52633Y210290D01*
X52730Y210401D01*
Y210415D01*
X52758Y210429D01*
X52813Y210512D01*
X52896Y210650D01*
X53007Y210831D01*
X53104Y211066D01*
X53187Y211344D01*
X53243Y211663D01*
X53271Y212037D01*
Y212051D01*
Y212079D01*
Y212134D01*
X53257Y212204D01*
Y212287D01*
X53243Y212384D01*
X53201Y212606D01*
X53146Y212855D01*
X53049Y213119D01*
X52910Y213369D01*
X52730Y213604D01*
X52702Y213632D01*
X52633Y213701D01*
X52522Y213785D01*
X52369Y213896D01*
X52175Y214007D01*
X51953Y214090D01*
X51690Y214159D01*
X51398Y214187D01*
D02*
G37*
G36*
X264425Y214460D02*
X262206D01*
Y207137D01*
X264480D01*
X264577Y207151D01*
X264785Y207165D01*
X265021Y207179D01*
X265271Y207206D01*
X265520Y207248D01*
X265728Y207304D01*
X265756Y207318D01*
X265825Y207331D01*
X265922Y207373D01*
X266047Y207428D01*
X266186Y207512D01*
X266325Y207595D01*
X266463Y207692D01*
X266602Y207803D01*
X266616Y207831D01*
X266671Y207886D01*
X266754Y207983D01*
X266852Y208122D01*
X266963Y208302D01*
X267087Y208510D01*
X267198Y208746D01*
X267295Y209009D01*
Y209023D01*
X267309Y209051D01*
X267323Y209093D01*
X267337Y209148D01*
X267351Y209217D01*
X267379Y209314D01*
X267406Y209412D01*
X267434Y209523D01*
X267476Y209800D01*
X267517Y210119D01*
X267545Y210480D01*
X267559Y210868D01*
Y210882D01*
Y210937D01*
Y211007D01*
X267545Y211117D01*
Y211242D01*
X267531Y211381D01*
X267517Y211547D01*
X267503Y211714D01*
X267434Y212088D01*
X267351Y212477D01*
X267226Y212837D01*
X267143Y213017D01*
X267060Y213170D01*
Y213184D01*
X267032Y213212D01*
X267004Y213253D01*
X266976Y213309D01*
X266866Y213447D01*
X266727Y213614D01*
X266546Y213794D01*
X266339Y213974D01*
X266103Y214127D01*
X265853Y214252D01*
X265825Y214266D01*
X265756Y214279D01*
X265631Y214321D01*
X265451Y214363D01*
X265229Y214390D01*
X264952Y214432D01*
X264785Y214446D01*
X264605D01*
X264425Y214460D01*
D02*
G37*
G36*
X19132Y157559D02*
X18994D01*
X18883Y157545D01*
X18758D01*
X18619Y157531D01*
X18453Y157517D01*
X18286Y157503D01*
X17912Y157434D01*
X17523Y157351D01*
X17163Y157226D01*
X16983Y157143D01*
X16830Y157060D01*
X16816D01*
X16788Y157032D01*
X16747Y157004D01*
X16691Y156976D01*
X16553Y156865D01*
X16386Y156727D01*
X16206Y156546D01*
X16026Y156338D01*
X15873Y156103D01*
X15748Y155853D01*
X15734Y155825D01*
X15721Y155756D01*
X15679Y155631D01*
X15637Y155451D01*
X15610Y155229D01*
X15568Y154952D01*
X15554Y154785D01*
Y154605D01*
X15540Y154425D01*
Y154217D01*
Y152206D01*
X22863D01*
Y154244D01*
Y154258D01*
Y154286D01*
Y154341D01*
Y154397D01*
Y154480D01*
X22849Y154577D01*
X22835Y154785D01*
X22821Y155021D01*
X22794Y155271D01*
X22752Y155520D01*
X22696Y155728D01*
X22682Y155756D01*
X22669Y155825D01*
X22627Y155922D01*
X22572Y156047D01*
X22488Y156186D01*
X22405Y156325D01*
X22308Y156463D01*
X22197Y156602D01*
X22169Y156616D01*
X22114Y156671D01*
X22017Y156755D01*
X21878Y156852D01*
X21698Y156962D01*
X21490Y157087D01*
X21254Y157198D01*
X20991Y157295D01*
X20977D01*
X20949Y157309D01*
X20907Y157323D01*
X20852Y157337D01*
X20782Y157351D01*
X20686Y157379D01*
X20588Y157406D01*
X20477Y157434D01*
X20200Y157476D01*
X19881Y157517D01*
X19520Y157545D01*
X19132Y157559D01*
D02*
G37*
G36*
X217737Y85504D02*
X217482D01*
X217207Y85485D01*
X216933Y85426D01*
X216668Y85337D01*
X216639Y85328D01*
X216580Y85288D01*
X216462Y85230D01*
X216305Y85132D01*
X216129Y84994D01*
X215903Y84828D01*
X215776Y84720D01*
X215648Y84592D01*
X215511Y84475D01*
X215364Y84327D01*
X213942Y82906D01*
X219119Y77728D01*
X220561Y79169D01*
X220571Y79179D01*
X220590Y79199D01*
X220630Y79238D01*
X220669Y79277D01*
X220728Y79336D01*
X220787Y79414D01*
X220924Y79571D01*
X221081Y79748D01*
X221238Y79944D01*
X221385Y80150D01*
X221493Y80336D01*
X221502Y80366D01*
X221542Y80424D01*
X221581Y80523D01*
X221630Y80650D01*
X221669Y80807D01*
X221708Y80964D01*
X221738Y81131D01*
X221757Y81307D01*
X221748Y81336D01*
Y81415D01*
X221738Y81543D01*
X221708Y81709D01*
X221659Y81915D01*
X221600Y82150D01*
X221512Y82396D01*
X221395Y82651D01*
X221385Y82660D01*
X221375Y82690D01*
X221355Y82729D01*
X221326Y82778D01*
X221287Y82837D01*
X221238Y82925D01*
X221189Y83013D01*
X221130Y83111D01*
X220963Y83337D01*
X220767Y83592D01*
X220532Y83867D01*
X220267Y84151D01*
X220257Y84161D01*
X220218Y84200D01*
X220169Y84249D01*
X220081Y84318D01*
X219992Y84406D01*
X219884Y84494D01*
X219757Y84602D01*
X219629Y84710D01*
X219316Y84926D01*
X218982Y85141D01*
X218639Y85308D01*
X218453Y85377D01*
X218286Y85426D01*
X218276Y85436D01*
X218237D01*
X218188Y85445D01*
X218129Y85465D01*
X217952Y85485D01*
X217737Y85504D01*
D02*
G37*
G36*
X162620Y84670D02*
X159547D01*
Y81441D01*
X162451D01*
X162620Y81455D01*
X162817Y81470D01*
X163043Y81484D01*
X163269Y81512D01*
X163494Y81554D01*
X163691Y81611D01*
X163720Y81625D01*
X163776Y81653D01*
X163861Y81695D01*
X163973Y81752D01*
X164100Y81836D01*
X164227Y81935D01*
X164354Y82062D01*
X164453Y82203D01*
X164467Y82217D01*
X164495Y82273D01*
X164537Y82358D01*
X164594Y82471D01*
X164636Y82597D01*
X164678Y82738D01*
X164706Y82907D01*
X164720Y83077D01*
Y83091D01*
Y83105D01*
X164706Y83189D01*
X164692Y83316D01*
X164664Y83485D01*
X164594Y83655D01*
X164509Y83852D01*
X164382Y84035D01*
X164213Y84219D01*
X164185Y84233D01*
X164114Y84289D01*
X164002Y84360D01*
X163818Y84444D01*
X163607Y84529D01*
X163325Y84599D01*
X163001Y84656D01*
X162620Y84670D01*
D02*
G37*
G36*
X27561Y117810D02*
X24488Y113440D01*
X27561D01*
Y117810D01*
D02*
G37*
G36*
X190431Y57865D02*
X190401Y57856D01*
X190313Y57846D01*
X190186Y57816D01*
X190000Y57748D01*
X189793Y57659D01*
X189548Y57512D01*
X189284Y57326D01*
X189009Y57071D01*
X186871Y54933D01*
X189117Y52688D01*
X191039Y54609D01*
X191049Y54619D01*
X191068Y54639D01*
X191098Y54668D01*
X191137Y54708D01*
X191245Y54835D01*
X191372Y54982D01*
X191520Y55149D01*
X191657Y55325D01*
X191784Y55512D01*
X191882Y55688D01*
X191892Y55718D01*
X191912Y55777D01*
X191941Y55865D01*
X191980Y55982D01*
X192010Y56130D01*
X192029Y56287D01*
Y56463D01*
X192000Y56630D01*
Y56649D01*
X191980Y56708D01*
X191951Y56796D01*
X191912Y56914D01*
X191853Y57032D01*
X191784Y57159D01*
X191686Y57297D01*
X191578Y57424D01*
X191569Y57434D01*
X191559Y57444D01*
X191490Y57493D01*
X191392Y57571D01*
X191255Y57669D01*
X191088Y57738D01*
X190892Y57816D01*
X190676Y57856D01*
X190431Y57865D01*
D02*
G37*
G36*
X97299Y89529D02*
X94276D01*
Y86353D01*
X97133D01*
X97299Y86367D01*
X97493Y86381D01*
X97715Y86395D01*
X97937Y86423D01*
X98159Y86464D01*
X98353Y86520D01*
X98381Y86533D01*
X98436Y86561D01*
X98520Y86603D01*
X98631Y86658D01*
X98755Y86742D01*
X98880Y86839D01*
X99005Y86963D01*
X99102Y87102D01*
X99116Y87116D01*
X99144Y87171D01*
X99185Y87255D01*
X99241Y87366D01*
X99282Y87490D01*
X99324Y87629D01*
X99352Y87795D01*
X99366Y87962D01*
Y87976D01*
Y87990D01*
X99352Y88073D01*
X99338Y88198D01*
X99310Y88364D01*
X99241Y88531D01*
X99158Y88725D01*
X99033Y88905D01*
X98866Y89085D01*
X98839Y89099D01*
X98769Y89155D01*
X98658Y89224D01*
X98478Y89307D01*
X98270Y89390D01*
X97993Y89460D01*
X97674Y89515D01*
X97299Y89529D01*
D02*
G37*
G36*
X195727Y62592D02*
X196629Y57414D01*
X198766Y59552D01*
X195727Y62592D01*
D02*
G37*
%LPD*%
D33*
X22700Y131200D02*
G03*
X22700Y131200I-1000J0D01*
G01*
X239646Y274719D02*
G03*
X239646Y274719I-1000J0D01*
G01*
X272719Y60353D02*
G03*
X272719Y60353I-1000J0D01*
G01*
X65737Y35410D02*
G03*
X97375Y60542I-3979J37489D01*
G01*
X63542Y94375D02*
G03*
X38410Y62737I12357J-35617D01*
G01*
X27500Y146100D02*
Y162500D01*
X64600Y146800D02*
Y162700D01*
X44100Y133700D02*
X47297D01*
X44100Y176700D02*
X47297Y176700D01*
X245081Y260082D02*
X256678Y248485D01*
X219342Y233353D02*
X230585Y222110D01*
X222314Y254851D02*
X224575Y257112D01*
X252720Y224446D02*
X254981Y226706D01*
X245485Y42322D02*
X257082Y53919D01*
X219110Y68415D02*
X230353Y79658D01*
X251851Y76686D02*
X254112Y74425D01*
X221446Y46280D02*
X223706Y44019D01*
X40104Y60612D02*
X63612Y37104D01*
D34*
X190250Y119200D02*
G03*
X190250Y119200I-3000J0D01*
G01*
D35*
X212750Y106100D02*
G03*
X212750Y106100I-1250J0D01*
G01*
D36*
X45000Y193000D02*
X47000D01*
X45000Y201000D02*
X47000D01*
X200714Y273121D02*
X202129Y274536D01*
X206371Y267465D02*
X207785Y268879D01*
X212121Y41536D02*
X213536Y40121D01*
X206465Y35879D02*
X207879Y34464D01*
X165000Y92000D02*
X167000D01*
X165000Y100000D02*
X167000D01*
X75464Y99879D02*
X76879Y98464D01*
X81121Y105535D02*
X82535Y104121D01*
X45000Y118500D02*
X47000D01*
X45000Y111500D02*
X47000D01*
X168250Y233000D02*
Y241000D01*
X151750Y233000D02*
Y241000D01*
X193250Y233000D02*
Y241000D01*
X176750Y233000D02*
Y241000D01*
X256005Y119662D02*
X261662Y114005D01*
X244338Y107995D02*
X249995Y102338D01*
D37*
X134750Y208200D02*
X197250Y208200D01*
X134750Y109200D02*
X197250D01*
X134750Y208200D02*
X134750Y109200D01*
X197250D02*
Y208200D01*
M02*
