G04 Layer_Physical_Order=2*
G04 Layer_Color=32768*
%FSLAX44Y44*%
%MOMM*%
G71*
G01*
G75*
%ADD25C,1.0000*%
%ADD26C,0.7500*%
%ADD27C,1.0000*%
G04:AMPARAMS|DCode=28|XSize=1.6mm|YSize=3mm|CornerRadius=0mm|HoleSize=0mm|Usage=FLASHONLY|Rotation=315.000|XOffset=0mm|YOffset=0mm|HoleType=Round|Shape=Rectangle|*
%AMROTATEDRECTD28*
4,1,4,-1.6263,-0.4950,0.4950,1.6263,1.6263,0.4950,-0.4950,-1.6263,-1.6263,-0.4950,0.0*
%
%ADD28ROTATEDRECTD28*%

%ADD29C,1.3000*%
%ADD30P,1.4142X4X90.0*%
%ADD31R,6.5000X4.5000*%
%ADD32R,5.2000X5.2000*%
D25*
X77000Y29000D02*
X170000D01*
X33000Y73000D02*
X77000Y29000D01*
X33000Y73000D02*
Y201322D01*
X58000Y103000D02*
X122000D01*
X84000Y242000D02*
X115000Y273000D01*
X73678Y242000D02*
X84000D01*
X33000Y201322D02*
X73678Y242000D01*
X122000Y103000D02*
X170000Y151000D01*
X199000Y122000D02*
X270000D01*
X170000Y151000D02*
X199000Y122000D01*
X115000Y273000D02*
X170000D01*
D26*
X80000Y210000D02*
X80000D01*
X70385Y219615D02*
X80000Y210000D01*
D27*
X62607Y248607D02*
D03*
X41393Y227393D02*
D03*
D28*
X80637Y59677D02*
D03*
X62677Y77637D02*
D03*
D29*
X58000Y103000D02*
D03*
X80000Y210000D02*
D03*
X270000Y122000D02*
D03*
D30*
X88062Y237293D02*
D03*
X70385Y219615D02*
D03*
X52707Y201938D02*
D03*
D31*
X170000Y29000D02*
D03*
Y273000D02*
D03*
D32*
Y151000D02*
D03*
M02*
