G04 Layer_Color=32896*
%FSLAX44Y44*%
%MOMM*%
G71*
G01*
G75*
%ADD33C,0.2540*%
G36*
X92557Y269603D02*
X92802Y269554D01*
X93018Y269515D01*
X93165Y269465D01*
X93224Y269446D01*
X93273Y269436D01*
X93302Y269426D01*
X93312Y269416D01*
X93606Y269279D01*
X93900Y269103D01*
X94165Y268936D01*
X94400Y268759D01*
X94606Y268593D01*
X94675Y268524D01*
X94753Y268465D01*
X94803Y268416D01*
X94852Y268367D01*
X94871Y268347D01*
X94881Y268338D01*
X95126Y268073D01*
X95322Y267818D01*
X95499Y267563D01*
X95646Y267337D01*
X95754Y267151D01*
X95803Y267063D01*
X95832Y266994D01*
X95852Y266935D01*
X95871Y266896D01*
X95881Y266867D01*
X95891Y266857D01*
X95989Y266563D01*
X96058Y266278D01*
X96087Y266014D01*
X96097Y265788D01*
X96087Y265602D01*
X96077Y265455D01*
X96067Y265347D01*
Y265327D01*
X96058Y265317D01*
X95989Y265053D01*
X95891Y264817D01*
X95773Y264601D01*
X95656Y264425D01*
X95548Y264278D01*
X95469Y264160D01*
X95430Y264121D01*
X95401Y264091D01*
X95391Y264082D01*
X95381Y264072D01*
X95204Y263915D01*
X95018Y263787D01*
X94832Y263680D01*
X94665Y263591D01*
X94528Y263533D01*
X94410Y263493D01*
X94332Y263474D01*
X94302Y263464D01*
X94067Y263425D01*
X93822Y263415D01*
X93596Y263425D01*
X93390Y263454D01*
X93214Y263474D01*
X93076Y263513D01*
X92978Y263533D01*
X92959D01*
X92949Y263542D01*
X92831Y263582D01*
X92704Y263631D01*
X92439Y263758D01*
X92145Y263915D01*
X91861Y264062D01*
X91606Y264199D01*
X91498Y264268D01*
X91400Y264327D01*
X91321Y264366D01*
X91262Y264405D01*
X91223Y264425D01*
X91213Y264435D01*
X91007Y264562D01*
X90811Y264680D01*
X90635Y264778D01*
X90488Y264866D01*
X90340Y264954D01*
X90213Y265023D01*
X90105Y265092D01*
X90007Y265131D01*
X89919Y265180D01*
X89860Y265219D01*
X89752Y265268D01*
X89693Y265308D01*
X89674D01*
X89468Y265396D01*
X89272Y265455D01*
X89095Y265494D01*
X88958Y265513D01*
X88830Y265523D01*
X88673D01*
X88517Y265504D01*
X88369Y265455D01*
X88242Y265386D01*
X88134Y265337D01*
X88046Y265268D01*
X87977Y265219D01*
X87928Y265170D01*
X87918Y265160D01*
X87810Y265033D01*
X87722Y264905D01*
X87654Y264778D01*
X87614Y264660D01*
X87575Y264543D01*
X87556Y264464D01*
X87536Y264405D01*
Y264386D01*
X87516Y264209D01*
X87536Y264033D01*
X87565Y263866D01*
X87585Y263709D01*
X87634Y263582D01*
X87663Y263474D01*
X87693Y263405D01*
X87703Y263376D01*
X87801Y263179D01*
X87918Y262983D01*
X88056Y262807D01*
X88173Y262650D01*
X88281Y262523D01*
X88369Y262415D01*
X88409Y262375D01*
X88438Y262346D01*
X88448Y262336D01*
X88458Y262326D01*
X88683Y262120D01*
X88899Y261944D01*
X89105Y261797D01*
X89301Y261679D01*
X89468Y261591D01*
X89595Y261522D01*
X89635Y261503D01*
X89674Y261483D01*
X89693D01*
X89703Y261473D01*
X89938Y261395D01*
X90174Y261336D01*
X90370Y261316D01*
X90556Y261306D01*
X90703Y261297D01*
X90821Y261316D01*
X90890Y261326D01*
X90909D01*
X91105Y261385D01*
X91311Y261454D01*
X91498Y261562D01*
X91664Y261650D01*
X91821Y261748D01*
X91929Y261816D01*
X91968Y261856D01*
X92008Y261875D01*
X92017Y261885D01*
X92027Y261895D01*
X92792Y260973D01*
X92527Y260748D01*
X92253Y260551D01*
X91988Y260404D01*
X91733Y260287D01*
X91517Y260208D01*
X91429Y260179D01*
X91360Y260149D01*
X91292Y260140D01*
X91252Y260120D01*
X91213D01*
X91203Y260110D01*
X90870Y260071D01*
X90547Y260061D01*
X90243Y260091D01*
X89968Y260130D01*
X89742Y260179D01*
X89566Y260238D01*
X89507Y260257D01*
X89458Y260267D01*
X89429Y260277D01*
X89419Y260287D01*
X89085Y260443D01*
X88762Y260630D01*
X88468Y260846D01*
X88183Y261052D01*
X88056Y261159D01*
X87948Y261248D01*
X87859Y261336D01*
X87771Y261404D01*
X87703Y261473D01*
X87654Y261522D01*
X87624Y261552D01*
X87614Y261562D01*
X87359Y261836D01*
X87144Y262111D01*
X86967Y262385D01*
X86830Y262621D01*
X86712Y262817D01*
X86673Y262915D01*
X86634Y262993D01*
X86614Y263052D01*
X86594Y263091D01*
X86585Y263121D01*
X86575Y263130D01*
X86477Y263444D01*
X86418Y263738D01*
X86389Y264023D01*
X86379Y264268D01*
Y264464D01*
X86398Y264621D01*
X86408Y264729D01*
Y264748D01*
X86418Y264758D01*
X86496Y265053D01*
X86594Y265308D01*
X86712Y265523D01*
X86830Y265719D01*
X86947Y265876D01*
X87036Y266004D01*
X87075Y266043D01*
X87104Y266072D01*
X87114Y266082D01*
X87124Y266092D01*
X87330Y266278D01*
X87546Y266435D01*
X87761Y266553D01*
X87948Y266641D01*
X88124Y266700D01*
X88252Y266749D01*
X88340Y266759D01*
X88369Y266769D01*
X88634Y266798D01*
X88909D01*
X89174Y266769D01*
X89429Y266729D01*
X89635Y266680D01*
X89801Y266631D01*
X89860Y266612D01*
X89909Y266602D01*
X89938Y266592D01*
X89948Y266582D01*
X90066Y266543D01*
X90193Y266474D01*
X90340Y266406D01*
X90497Y266327D01*
X90811Y266151D01*
X91135Y265965D01*
X91282Y265876D01*
X91419Y265798D01*
X91557Y265719D01*
X91664Y265651D01*
X91753Y265602D01*
X91821Y265553D01*
X91870Y265523D01*
X91880Y265513D01*
X92125Y265366D01*
X92341Y265229D01*
X92547Y265121D01*
X92724Y265023D01*
X92900Y264945D01*
X93047Y264876D01*
X93184Y264817D01*
X93302Y264758D01*
X93410Y264729D01*
X93498Y264699D01*
X93557Y264680D01*
X93626Y264670D01*
X93704Y264650D01*
X93724D01*
X93910Y264660D01*
X94067Y264699D01*
X94214Y264748D01*
X94342Y264817D01*
X94440Y264876D01*
X94518Y264935D01*
X94557Y264974D01*
X94577Y264994D01*
X94714Y265170D01*
X94812Y265347D01*
X94871Y265523D01*
X94910Y265700D01*
X94930Y265837D01*
X94940Y265965D01*
Y266043D01*
X94930Y266072D01*
X94901Y266200D01*
X94871Y266327D01*
X94763Y266592D01*
X94616Y266837D01*
X94459Y267073D01*
X94302Y267269D01*
X94234Y267357D01*
X94185Y267426D01*
X94126Y267484D01*
X94087Y267524D01*
X94057Y267553D01*
X94047Y267563D01*
X93763Y267828D01*
X93479Y268034D01*
X93224Y268171D01*
X92998Y268279D01*
X92812Y268347D01*
X92655Y268387D01*
X92567Y268396D01*
X92537Y268406D01*
X92263D01*
X92008Y268367D01*
X91763Y268298D01*
X91547Y268200D01*
X91360Y268092D01*
X91223Y268014D01*
X91164Y267975D01*
X91125Y267955D01*
X91105Y267936D01*
X91096Y267926D01*
X90301Y268857D01*
X90537Y269054D01*
X90782Y269201D01*
X91017Y269338D01*
X91243Y269426D01*
X91429Y269495D01*
X91576Y269544D01*
X91625Y269554D01*
X91674Y269564D01*
X91694D01*
X91704Y269573D01*
X91998Y269613D01*
X92282Y269622D01*
X92557Y269603D01*
D02*
G37*
G36*
X215959Y265558D02*
X216115Y265332D01*
X216298Y265107D01*
X216467Y264909D01*
X216636Y264740D01*
X216763Y264599D01*
X216819Y264557D01*
X216862Y264515D01*
X216876Y264501D01*
X216890Y264486D01*
X217186Y264247D01*
X217482Y264021D01*
X217764Y263824D01*
X218046Y263669D01*
X218285Y263528D01*
X218384Y263471D01*
X218469Y263429D01*
X218539Y263387D01*
X218596Y263373D01*
X218624Y263344D01*
X218638D01*
Y262189D01*
X218426Y262273D01*
X218215Y262372D01*
X218004Y262470D01*
X217806Y262569D01*
X217637Y262654D01*
X217496Y262724D01*
X217411Y262781D01*
X217397Y262795D01*
X217383D01*
X217129Y262950D01*
X216904Y263105D01*
X216707Y263246D01*
X216551Y263373D01*
X216411Y263471D01*
X216326Y263556D01*
X216255Y263612D01*
X216241Y263626D01*
Y256000D01*
X215043D01*
Y265797D01*
X215818D01*
X215959Y265558D01*
D02*
G37*
G36*
X225644Y265896D02*
X226137Y265826D01*
X226363Y265783D01*
X226574Y265727D01*
X226772Y265685D01*
X226955Y265628D01*
X227124Y265572D01*
X227265Y265515D01*
X227392Y265459D01*
X227505Y265417D01*
X227589Y265375D01*
X227646Y265346D01*
X227688Y265332D01*
X227702Y265318D01*
X227899Y265191D01*
X228097Y265064D01*
X228435Y264768D01*
X228731Y264472D01*
X228971Y264162D01*
X229168Y263894D01*
X229239Y263782D01*
X229295Y263669D01*
X229352Y263584D01*
X229380Y263528D01*
X229394Y263486D01*
X229408Y263471D01*
X229605Y263006D01*
X229746Y262541D01*
X229859Y262090D01*
X229887Y261878D01*
X229930Y261681D01*
X229944Y261498D01*
X229972Y261343D01*
X229986Y261188D01*
Y261061D01*
X230000Y260962D01*
Y260892D01*
Y260835D01*
Y260821D01*
X229972Y260300D01*
X229901Y259806D01*
X229859Y259581D01*
X229817Y259369D01*
X229760Y259158D01*
X229704Y258974D01*
X229648Y258805D01*
X229591Y258664D01*
X229549Y258523D01*
X229507Y258425D01*
X229464Y258326D01*
X229436Y258270D01*
X229408Y258227D01*
Y258213D01*
X229154Y257804D01*
X228872Y257452D01*
X228576Y257142D01*
X228294Y256888D01*
X228026Y256691D01*
X227928Y256620D01*
X227829Y256550D01*
X227745Y256507D01*
X227688Y256465D01*
X227646Y256451D01*
X227632Y256437D01*
X227406Y256324D01*
X227181Y256240D01*
X226730Y256085D01*
X226292Y255986D01*
X225884Y255901D01*
X225700Y255887D01*
X225531Y255859D01*
X225376Y255845D01*
X225249D01*
X225151Y255831D01*
X225010D01*
X224615Y255845D01*
X224234Y255887D01*
X223882Y255958D01*
X223572Y256028D01*
X223445Y256056D01*
X223318Y256085D01*
X223205Y256127D01*
X223107Y256155D01*
X223036Y256183D01*
X222980Y256197D01*
X222952Y256211D01*
X222937D01*
X222557Y256367D01*
X222204Y256550D01*
X221866Y256747D01*
X221570Y256930D01*
X221443Y257015D01*
X221316Y257100D01*
X221218Y257170D01*
X221133Y257226D01*
X221063Y257283D01*
X221006Y257325D01*
X220978Y257339D01*
X220964Y257353D01*
Y260976D01*
X225108D01*
Y259820D01*
X222233D01*
Y257988D01*
X222402Y257847D01*
X222599Y257720D01*
X222810Y257607D01*
X223008Y257508D01*
X223177Y257424D01*
X223332Y257353D01*
X223389Y257325D01*
X223417Y257311D01*
X223445Y257297D01*
X223459D01*
X223755Y257198D01*
X224051Y257114D01*
X224319Y257057D01*
X224573Y257029D01*
X224784Y257001D01*
X224869D01*
X224953Y256987D01*
X225094D01*
X225447Y257001D01*
X225785Y257057D01*
X226095Y257128D01*
X226377Y257198D01*
X226603Y257283D01*
X226701Y257311D01*
X226772Y257339D01*
X226842Y257367D01*
X226885Y257396D01*
X226913Y257410D01*
X226927D01*
X227223Y257593D01*
X227491Y257790D01*
X227716Y258002D01*
X227899Y258213D01*
X228055Y258411D01*
X228153Y258566D01*
X228196Y258622D01*
X228210Y258664D01*
X228238Y258692D01*
Y258707D01*
X228379Y259059D01*
X228492Y259426D01*
X228562Y259792D01*
X228619Y260145D01*
X228633Y260300D01*
X228647Y260441D01*
X228661Y260581D01*
Y260694D01*
X228675Y260779D01*
Y260849D01*
Y260892D01*
Y260906D01*
X228661Y261301D01*
X228619Y261653D01*
X228562Y261991D01*
X228492Y262287D01*
X228463Y262414D01*
X228421Y262527D01*
X228393Y262626D01*
X228365Y262710D01*
X228337Y262781D01*
X228323Y262823D01*
X228308Y262851D01*
Y262865D01*
X228210Y263063D01*
X228111Y263246D01*
X228012Y263415D01*
X227914Y263556D01*
X227829Y263669D01*
X227759Y263767D01*
X227702Y263824D01*
X227688Y263838D01*
X227533Y263993D01*
X227364Y264134D01*
X227181Y264247D01*
X227011Y264359D01*
X226870Y264430D01*
X226758Y264501D01*
X226673Y264529D01*
X226645Y264543D01*
X226391Y264641D01*
X226137Y264712D01*
X225870Y264754D01*
X225630Y264797D01*
X225418Y264811D01*
X225334D01*
X225263Y264825D01*
X225108D01*
X224841Y264811D01*
X224587Y264782D01*
X224361Y264740D01*
X224164Y264698D01*
X223995Y264641D01*
X223868Y264599D01*
X223797Y264571D01*
X223769Y264557D01*
X223558Y264458D01*
X223374Y264345D01*
X223205Y264233D01*
X223078Y264120D01*
X222980Y264021D01*
X222895Y263951D01*
X222853Y263894D01*
X222839Y263880D01*
X222712Y263711D01*
X222613Y263514D01*
X222514Y263330D01*
X222430Y263133D01*
X222374Y262964D01*
X222331Y262837D01*
X222317Y262781D01*
X222303Y262738D01*
X222289Y262724D01*
Y262710D01*
X221119Y263020D01*
X221218Y263373D01*
X221344Y263683D01*
X221471Y263965D01*
X221584Y264190D01*
X221697Y264374D01*
X221781Y264501D01*
X221838Y264585D01*
X221866Y264613D01*
X222063Y264839D01*
X222275Y265022D01*
X222500Y265191D01*
X222712Y265332D01*
X222909Y265431D01*
X223064Y265515D01*
X223121Y265544D01*
X223163Y265558D01*
X223191Y265572D01*
X223205D01*
X223529Y265685D01*
X223868Y265769D01*
X224178Y265840D01*
X224474Y265882D01*
X224742Y265910D01*
X224855D01*
X224939Y265924D01*
X225390D01*
X225644Y265896D01*
D02*
G37*
G36*
X82221Y280821D02*
X82152Y280557D01*
X82103Y280292D01*
X82074Y280007D01*
X82054Y279752D01*
Y279517D01*
X82044Y279331D01*
X82054Y279262D01*
Y279203D01*
Y279184D01*
Y279164D01*
X82093Y278791D01*
X82142Y278428D01*
X82201Y278095D01*
X82289Y277791D01*
X82358Y277526D01*
X82388Y277418D01*
X82417Y277330D01*
X82437Y277252D01*
X82466Y277203D01*
Y277164D01*
X82476Y277154D01*
X81672Y276350D01*
X81583Y276556D01*
X81505Y276771D01*
X81426Y276987D01*
X81358Y277193D01*
X81299Y277369D01*
X81250Y277516D01*
X81230Y277615D01*
Y277634D01*
X81221Y277644D01*
X81152Y277928D01*
X81103Y278193D01*
X81064Y278428D01*
X81044Y278625D01*
X81015Y278791D01*
Y278909D01*
X81005Y278997D01*
Y279017D01*
X75700Y273712D01*
X74866Y274545D01*
X81681Y281361D01*
X82221Y280821D01*
D02*
G37*
G36*
X88928Y274055D02*
X84731Y264680D01*
X83780Y265631D01*
X85104Y268426D01*
X82260Y271270D01*
X79406Y270005D01*
X78387Y271025D01*
X87948Y275035D01*
X88928Y274055D01*
D02*
G37*
%LPC*%
G36*
X87752Y273820D02*
X87457Y273663D01*
X87144Y273506D01*
X86830Y273349D01*
X86526Y273202D01*
X86389Y273143D01*
X86261Y273074D01*
X86143Y273015D01*
X86045Y272976D01*
X85967Y272937D01*
X85898Y272908D01*
X85859Y272888D01*
X85849Y272878D01*
X83280Y271721D01*
X85575Y269426D01*
X86820Y272143D01*
X86977Y272476D01*
X87144Y272780D01*
X87291Y273064D01*
X87438Y273310D01*
X87565Y273515D01*
X87614Y273604D01*
X87673Y273682D01*
X87693Y273741D01*
X87732Y273780D01*
X87742Y273810D01*
X87752Y273820D01*
D02*
G37*
%LPD*%
D33*
X261000Y151000D02*
G03*
X261000Y151000I-95000J0D01*
G01*
X16645Y245071D02*
X27251Y234464D01*
X16645Y245071D02*
X30787Y259213D01*
X42101Y247899D01*
X16645Y222444D02*
X37858Y201231D01*
X16645Y222444D02*
X67556Y273355D01*
X37858Y201231D02*
X88770Y252142D01*
X67556Y273355D02*
X88770Y252142D01*
M02*
